<?xml version="1.0" encoding="utf-8"?>
<!-- Generator: Adobe Illustrator 16.0.0, SVG Export Plug-In . SVG Version: 6.00 Build 0)  -->
<!DOCTYPE svg PUBLIC "-//W3C//DTD SVG 1.1//EN" "http://www.w3.org/Graphics/SVG/1.1/DTD/svg11.dtd">
<svg version="1.1" xmlns="http://www.w3.org/2000/svg" xmlns:xlink="http://www.w3.org/1999/xlink" x="0px" y="0px"
	 width="630.584px" height="595.323px" viewBox="0 0 630.584 595.323" enable-background="new 0 0 630.584 595.323"
	 xml:space="preserve">
<g id="bullrun">
	
		<image overflow="visible" width="106" height="105" xlink:href="../../../../../../../../Users/maximevaudano/Documents/Le Monde.fr/nsa/html/img/bullrun2.png"  transform="matrix(0.9435 0 0 0.9435 501.3203 5.936)">
	</image>
	<text transform="matrix(1 0 0 1 521.0996 28.2573)"><tspan x="0" y="0" font-family="'TheSerifOfficeBold'" font-size="13.7267">BULLRUN </tspan><tspan x="-1.14" y="16.472" font-family="'TheSerifOfficeBold'" font-size="13.7267">EDGEHILL</tspan></text>
</g>
<g id="boundlessinformant">
	
		<image overflow="visible" width="106" height="105" xlink:href="../../../../../../../../Users/maximevaudano/Documents/Le Monde.fr/nsa/html/img/boundlessinformant2.png"  transform="matrix(0.9462 0 0 0.9462 90.2607 5.646)">
	</image>
	<text transform="matrix(1 0 0 1 103.1758 22.2573)"><tspan x="0" y="0" font-family="'TheSerifOfficeBold'" font-size="12.8922">BOUNDLESS </tspan><tspan x="-1.128" y="15.471" font-family="'TheSerifOfficeBold'" font-size="12.8922">INFORMANT</tspan></text>
</g>
<g id="xkeyscore">
	<polyline opacity="0.2" fill="#7F7F7F" points="211,5 211,105 274,105 274,239 418,239 418,105 481,105 481,5 	"/>
	
		<image overflow="visible" width="158" height="336" xlink:href="../../../../../../../../Users/maximevaudano/Documents/Le Monde.fr/nsa/xkeyscore.png"  transform="matrix(0.622 0 0 0.622 302.8457 254.9995)">
	</image>
	
		<image overflow="visible" width="190" height="171" xlink:href="../../../../../../../../Users/maximevaudano/Documents/Le Monde.fr/nsa/xkeyscore2.png"  transform="matrix(0.5079 0 0 0.5079 301.7471 145.7725)">
	</image>
</g>
<g id="agences">
	
		<image overflow="visible" width="200" height="200" xlink:href="../../../../../../../../Users/maximevaudano/Documents/Le Monde.fr/nsa/nsa.png"  transform="matrix(0.415 0 0 0.415 309.0005 56.9995)">
	</image>
	
		<image overflow="visible" width="200" height="89" xlink:href="../../../../../../../../Users/maximevaudano/Documents/Le Monde.fr/nsa/gchq.png"  transform="matrix(0.4841 0 0 0.4841 302.0957 7.5)">
	</image>
	
		<image overflow="visible" width="200" height="172" xlink:href="../../../../../../../../Users/maximevaudano/Documents/Le Monde.fr/nsa/bnd.png"  transform="matrix(0.33 0 0 0.33 219.8149 24.7402)">
	</image>
	
		<image overflow="visible" width="226" height="242" xlink:href="../../../../../../../../Users/maximevaudano/Documents/Le Monde.fr/nsa/unite2000.png"  transform="matrix(0.2367 0 0 0.2367 412.5112 24.2197)">
	</image>
</g>
<g id="fairview">
	<g>
		<g>
			
				<line fill="none" stroke="#0098A7" stroke-width="2" stroke-miterlimit="10" x1="217.067" y1="283.241" x2="285.671" y2="336.051"/>
			<g>
				<polygon fill="#0098A7" points="280.992,337.582 295.5,343.616 285.954,331.136 				"/>
			</g>
		</g>
	</g>
	<circle fill="#BDDADD" stroke="#000000" stroke-width="6" stroke-miterlimit="10" cx="173.5" cy="256.5" r="50.5"/>
	<text transform="matrix(1 0 0 1 132.8828 262.8779)" font-family="'TheSerifOfficeBold'" font-size="17">FAIRVIEW</text>
</g>
<g id="verizon">
	<circle opacity="0.6" fill="#BDDADD" cx="55.828" cy="457.828" r="38.828"/>
	<text transform="matrix(1 0 0 1 51.8296 440.8926)" font-family="'TheSerifOfficeBold'" font-size="21">?</text>
	
		<image overflow="visible" width="400" height="240" xlink:href="../../../../../../../../Users/maximevaudano/Documents/Le Monde.fr/nsa/verizon.png"  transform="matrix(0.1187 0 0 0.1187 32.0898 453.8174)">
	</image>
	<g>
		<g>
			<line fill="none" stroke="#0098A7" stroke-miterlimit="10" x1="92.344" y1="470.304" x2="114.507" y2="483.322"/>
			<g>
				<polygon fill="#0098A7" points="111.804,484.599 121,487.137 114.306,480.34 				"/>
			</g>
		</g>
	</g>
</g>
<g id="blarney">
	<circle opacity="0.6" fill="#BDDADD" cx="52.828" cy="548.828" r="38.828"/>
	<g>
		<g>
			<line fill="none" stroke="#0098A7" stroke-miterlimit="10" x1="91.344" y1="541.138" x2="114.089" y2="531.295"/>
			<g>
				<polygon fill="#0098A7" points="113.524,534.23 121,528.305 111.562,529.698 				"/>
			</g>
		</g>
	</g>
	<text transform="matrix(1 0 0 1 23.8296 539.8926)" font-family="'TheSerifOfficeBold'" font-size="13.0709">BLARNEY</text>
	
		<image overflow="visible" width="200" height="90" xlink:href="../../../../../../../../Users/maximevaudano/Documents/Le Monde.fr/nsa/atett.png"  transform="matrix(0.3 0 0 0.3 22.1406 544.8496)">
	</image>
</g>
<g id="evilolive">
	<path fill="none" stroke="#0098A7" stroke-width="2" stroke-miterlimit="10" d="M221,490"/>
	<g>
		<g>
			
				<line fill="none" stroke="#0098A7" stroke-width="2" stroke-miterlimit="10" x1="221.067" y1="489.616" x2="284.973" y2="449.8"/>
			<g>
				<polygon fill="#0098A7" points="284.77,454.719 295.5,443.241 280.468,447.814 				"/>
			</g>
		</g>
	</g>
	<g>
		<g>
			<line fill="none" stroke="#0098A7" stroke-width="2" stroke-miterlimit="10" x1="476" y1="488.721" x2="422.368" y2="450.446"/>
			<g>
				<polygon fill="#0098A7" points="426.989,448.747 412.272,443.241 422.264,455.368 				"/>
			</g>
		</g>
	</g>
	<circle fill="#BDDADD" stroke="#000000" stroke-width="6" stroke-miterlimit="10" cx="173.5" cy="508.5" r="49"/>
	<text transform="matrix(1 0 0 1 131.8828 514.8779)" font-family="'TheSerifOfficeBold'" font-size="17">EVILOLIVE</text>
	<path fill="none" stroke="#0098A7" stroke-width="2" stroke-miterlimit="10" d="M476,490"/>
</g>
<g id="legende">
</g>
<g id="stormbrew">
	<circle fill="#BDDADD" cx="198.828" cy="354.828" r="30.131"/>
	<text transform="matrix(1 0 0 1 178.6641 351.8926)"><tspan x="0" y="0" font-family="'TheSerifOfficeBold'" font-size="12">STORM</tspan><tspan x="3.636" y="14.4" font-family="'TheSerifOfficeBold'" font-size="12">BREW</tspan></text>
</g>
<g id="oakstar">
	<circle fill="#BDDADD" cx="139.828" cy="389.828" r="30.131"/>
	<text transform="matrix(1 0 0 1 126.1938 385.8926)"><tspan x="0" y="0" font-family="'TheSerifOfficeBold'" font-size="12">OAK </tspan><tspan x="-1.872" y="14.4" font-family="'TheSerifOfficeBold'" font-size="12">STAR</tspan></text>
	<g>
		<g>
			<line fill="none" stroke="#0098A7" stroke-width="2" stroke-miterlimit="10" x1="170" y1="390" x2="283" y2="390"/>
			<g>
				<polygon fill="#0098A7" points="280,393.896 295.177,389.828 280,385.761 				"/>
			</g>
		</g>
	</g>
	<g>
		<g>
			
				<line fill="none" stroke="#0098A7" stroke-width="2" stroke-miterlimit="10" x1="228.173" y1="362.655" x2="283.481" y2="376.763"/>
			<g>
				<polygon fill="#0098A7" points="279.789,380.019 295.5,379.828 281.799,372.136 				"/>
			</g>
		</g>
	</g>
	<g>
		<g>
			
				<line fill="none" stroke="#0098A7" stroke-width="2" stroke-miterlimit="10" x1="228.173" y1="417.829" x2="283.481" y2="403.722"/>
			<g>
				<polygon fill="#0098A7" points="281.799,408.349 295.5,400.656 279.789,400.466 				"/>
			</g>
		</g>
	</g>
</g>
<g id="lithium">
	<circle fill="#BDDADD" cx="198.828" cy="424.828" r="30.131"/>
	<text transform="matrix(1 0 0 1 173.356 428.8926)" font-family="'TheSerifOfficeBold'" font-size="12.07">LITHIUM</text>
</g>
<g id="silverzephyr">
	<circle opacity="0.6" fill="#BDDADD" cx="83.078" cy="344.301" r="34.224"/>
	<text transform="matrix(1 1.900000e-04 -1.900000e-04 1 66.2749 325.6055)"><tspan x="0" y="0" font-family="'TheSerifOfficeBold'" font-size="9.707">SILVER </tspan><tspan x="-2.203" y="11.648" font-family="'TheSerifOfficeBold'" font-size="9.707">ZEPHYR</tspan></text>
	<g>
		<g>
			<line fill="none" stroke="#0098A7" stroke-miterlimit="10" x1="108.082" y1="319.891" x2="127.154" y2="303.618"/>
			<g>
				<polygon fill="#0098A7" points="127.476,306.59 132.883,298.73 124.27,302.833 				"/>
			</g>
		</g>
	</g>
	
		<image overflow="visible" width="100" height="101" xlink:href="../../../../../../../../Users/maximevaudano/Documents/Le Monde.fr/nsa/bre.png"  transform="matrix(0.3323 6.299181e-05 -6.299181e-05 0.3323 65.5674 339.6377)">
	</image>
</g>
<g id="allemagne">
	<circle opacity="0.6" fill="#BDDADD" cx="49.911" cy="275.931" r="34.252"/>
	<text transform="matrix(1 -0.0037 0.0037 1 19.9009 269.6758)" font-family="'TheSerifOfficeBold'" font-size="9.7148">ALLEMAGNE</text>
	<g>
		<g>
			<line fill="none" stroke="#0098A7" stroke-miterlimit="10" x1="83.163" y1="270.569" x2="108.903" y2="266.325"/>
			<g>
				<polygon fill="#0098A7" points="107.644,269.036 116.333,265.1 106.84,264.162 				"/>
			</g>
		</g>
	</g>
	
		<image overflow="visible" width="53" height="71" xlink:href="../../../../../../../../Users/maximevaudano/Documents/Le Monde.fr/nsa/allemagne.png"  transform="matrix(0.4724 -0.0018 0.0018 0.4724 38.438 272.1934)">
	</image>
</g>
<g id="mexique">
	<circle opacity="0.6" fill="#BDDADD" cx="59.256" cy="198.572" r="36.363"/>
	<text transform="matrix(1 -0.003 0.003 1 35.5083 189.8291)" font-family="'TheSerifOfficeBold'" font-size="10.3137">MEXIQUE</text>
	<g>
		<g>
			<line fill="none" stroke="#0098A7" stroke-miterlimit="10" x1="92.567" y1="213.402" x2="113.719" y2="227.395"/>
			<g>
				<polygon fill="#0098A7" points="110.952,228.525 120,231.549 113.677,224.406 				"/>
			</g>
		</g>
	</g>
	
		<image overflow="visible" width="99" height="69" xlink:href="../../../../../../../../Users/maximevaudano/Documents/Le Monde.fr/nsa/mexique.png"  transform="matrix(0.4247 -0.0013 0.0013 0.4247 36.8076 195.7715)">
	</image>
</g>
<g id="teamtelecom">
	<circle opacity="0.6" fill="#BDDADD" cx="119.721" cy="143.817" r="34.28"/>
	<text transform="matrix(1 0.0074 -0.0074 1 105.0361 124.9858)"><tspan x="0" y="0" font-family="'TheSerifOfficeBold'" font-size="9.7229">TEAM </tspan><tspan x="-7.871" y="11.667" font-family="'TheSerifOfficeBold'" font-size="9.7229">TELECOM</tspan></text>
	<g>
		<g>
			<line fill="none" stroke="#0098A7" stroke-miterlimit="10" x1="130.467" y1="175.097" x2="141.094" y2="197.394"/>
			<g>
				<polygon fill="#0098A7" points="138.14,196.936 144.333,204.191 142.598,194.811 				"/>
			</g>
		</g>
	</g>
	
		<image overflow="visible" width="20" height="31" xlink:href="../../../../../../../../Users/maximevaudano/Documents/Le Monde.fr/nsa/html/img/telephone.png"  transform="matrix(0.9999 0 0 0.9999 109 140)">
	</image>
</g>
<g id="tempora">
	<circle fill="#BDDADD" stroke="#000000" stroke-width="6" stroke-miterlimit="10" cx="526" cy="498.5" r="47.578"/>
	<text transform="matrix(1 0 0 1 485.7651 505.8779)" font-family="'TheSerifOfficeBold'" font-size="17">TEMPORA</text>
	<circle opacity="0.6" fill="#9BC8CD" cx="550.391" cy="422.084" r="13.825"/>
	<path opacity="0.6" fill="#9BC8CD" d="M585.829,426.607c6.728,3.609,9.253,11.991,5.646,18.719
		c-3.611,6.729-11.994,9.256-18.719,5.647c-6.73-3.611-9.258-11.992-5.646-18.721C570.718,425.524,579.1,422.997,585.829,426.607z"
		/>
	<circle opacity="0.6" fill="#9BC8CD" cx="598.914" cy="465.797" r="13.826"/>
	<circle opacity="0.6" fill="#9BC8CD" cx="605.868" cy="498.447" r="13.827"/>
	<path opacity="0.6" fill="#9BC8CD" d="M612.567,533.538c-1.344,7.518-8.527,12.518-16.044,11.177
		c-7.516-1.346-12.52-8.527-11.178-16.043c1.342-7.52,8.527-12.521,16.044-11.179C608.906,518.838,613.91,526.021,612.567,533.538z"
		/>
	<path opacity="0.6" fill="#9BC8CD" d="M590.82,565.891c-4.281,6.324-12.879,7.976-19.201,3.694
		c-6.322-4.283-7.975-12.879-3.696-19.2c4.285-6.324,12.881-7.977,19.203-3.695C593.447,550.972,595.102,559.568,590.82,565.891z"/>
	<path opacity="0.6" fill="#9BC8CD" d="M557.803,586.619c-6.479,4.038-15.008,2.052-19.046-4.428
		c-4.034-6.484-2.052-15.01,4.425-19.046c6.484-4.038,15.01-2.056,19.049,4.425C566.265,574.053,564.285,582.579,557.803,586.619z"
		/>
	<g>
		<g>
			
				<line fill="none" stroke="#000000" stroke-width="0.75" stroke-miterlimit="10" x1="545.68" y1="561.768" x2="543.272" y2="552.257"/>
			<g>
				<polygon points="546.481,553.617 543.5,553.154 541.097,554.98 542.174,547.916 				"/>
			</g>
		</g>
	</g>
	<g>
		<g>
			
				<line fill="none" stroke="#000000" stroke-width="0.75" stroke-miterlimit="10" x1="569.834" y1="547.82" x2="563.896" y2="540.011"/>
			<g>
				<polygon points="567.382,540.007 564.456,540.749 562.96,543.369 561.186,536.447 				"/>
			</g>
		</g>
	</g>
	<g>
		<g>
			
				<line fill="none" stroke="#000000" stroke-width="0.75" stroke-miterlimit="10" x1="585.073" y1="526.843" x2="576.551" y2="521.98"/>
			<g>
				<polygon points="579.757,520.612 577.355,522.439 577.004,525.437 572.662,519.762 				"/>
			</g>
		</g>
	</g>
	<g>
		<g>
			
				<line fill="none" stroke="#000000" stroke-width="0.75" stroke-miterlimit="10" x1="591.805" y1="498.183" x2="582.061" y2="497.045"/>
			<g>
				<polygon points="584.475,494.53 582.98,497.152 583.83,500.048 577.613,496.525 				"/>
			</g>
		</g>
	</g>
	<g>
		<g>
			
				<line fill="none" stroke="#000000" stroke-width="0.75" stroke-miterlimit="10" x1="585.955" y1="468.936" x2="576.544" y2="471.702"/>
			<g>
				<polygon points="577.781,468.443 577.433,471.44 579.348,473.772 572.248,472.965 				"/>
			</g>
		</g>
	</g>
	<g>
		<g>
			
				<line fill="none" stroke="#000000" stroke-width="0.75" stroke-miterlimit="10" x1="569.14" y1="448.289" x2="561.562" y2="454.519"/>
			<g>
				<polygon points="561.426,451.035 562.278,453.93 564.953,455.326 558.104,457.361 				"/>
			</g>
		</g>
	</g>
	<g>
		<g>
			
				<line fill="none" stroke="#000000" stroke-width="0.75" stroke-miterlimit="10" x1="545.562" y1="434.857" x2="541.027" y2="443.556"/>
			<g>
				<polygon points="539.539,440.403 541.456,442.733 544.465,442.972 538.958,447.525 				"/>
			</g>
		</g>
	</g>
	<path fill="none" stroke="#000000" stroke-miterlimit="10" d="M525.5,448"/>
	<path fill="none" stroke="#000000" stroke-miterlimit="10" d="M525.5,549"/>
	<path fill="none" stroke="#000000" stroke-miterlimit="10" d="M575,498.5"/>
	<path fill="none" stroke="#000000" stroke-miterlimit="10" d="M475,498.5"/>
	
		<image overflow="visible" width="400" height="190" xlink:href="../../../../../../../../Users/maximevaudano/Documents/Le Monde.fr/nsa/bt.png"  transform="matrix(0.0585 0 0 0.0585 567.6035 433.2412)">
	</image>
	
		<image overflow="visible" width="151" height="65" xlink:href="../../../../../../../../Users/maximevaudano/Documents/Le Monde.fr/nsa/gc.png"  transform="matrix(0.1681 0 0 0.1681 537.1104 570.1641)">
	</image>
	
		<image overflow="visible" width="165" height="50" xlink:href="../../../../../../../../Users/maximevaudano/Documents/Le Monde.fr/nsa/interoute.png"  transform="matrix(0.1709 0 0 0.1709 585.0693 460.3857)">
	</image>
	
		<image overflow="visible" width="400" height="121" xlink:href="../../../../../../../../Users/maximevaudano/Documents/Le Monde.fr/nsa/level3.png"  transform="matrix(0.0581 0 0 0.0581 567.666 554.9824)">
	</image>
	
		<image overflow="visible" width="400" height="240" xlink:href="../../../../../../../../Users/maximevaudano/Documents/Le Monde.fr/nsa/verizon.png"  transform="matrix(0.0584 0 0 0.0584 593.7061 491.6621)">
	</image>
	
		<image overflow="visible" width="110" height="50" xlink:href="../../../../../../../../Users/maximevaudano/Documents/Le Monde.fr/nsa/viatel.png"  transform="matrix(0.2218 0 0 0.2218 586.9395 525.2764)">
	</image>
	
		<image overflow="visible" width="256" height="179" xlink:href="../../../../../../../../Users/maximevaudano/Documents/Le Monde.fr/nsa/vodafone.png"  transform="matrix(0.0796 0 0 0.0796 540.2021 413.9609)">
	</image>
</g>
<g id="prism">
	<g>
		<g>
			
				<line fill="none" stroke="#777776" stroke-width="2" stroke-miterlimit="10" x1="481.5" y1="286.608" x2="421.847" y2="335.731"/>
			<g>
				<polygon fill="#777776" points="421.403,330.828 412.272,343.616 426.574,337.108 				"/>
			</g>
		</g>
	</g>
	<circle fill="#E2DEC3" stroke="#000000" stroke-width="6" stroke-miterlimit="10" cx="526.5" cy="261.5" r="46.877"/>
	<circle opacity="0.6" fill="#E2DEC3" cx="518.196" cy="181.562" r="13.826"/>
	<circle opacity="0.6" fill="#E2DEC3" cx="551.391" cy="185.084" r="13.825"/>
	<path opacity="0.6" fill="#E2DEC3" d="M586.829,189.607c6.728,3.609,9.253,11.991,5.646,18.719
		c-3.611,6.729-11.994,9.256-18.719,5.647c-6.73-3.611-9.258-11.992-5.646-18.721C571.718,188.524,580.1,185.997,586.829,189.607z"
		/>
	<circle opacity="0.6" fill="#E2DEC3" cx="599.914" cy="228.797" r="13.826"/>
	<circle opacity="0.6" fill="#E2DEC3" cx="606.868" cy="261.447" r="13.827"/>
	<path opacity="0.6" fill="#E2DEC3" d="M613.567,296.538c-1.344,7.518-8.527,12.518-16.044,11.177
		c-7.516-1.346-12.52-8.527-11.178-16.043c1.342-7.52,8.527-12.521,16.044-11.179C609.906,281.838,614.91,289.021,613.567,296.538z"
		/>
	<path opacity="0.6" fill="#E2DEC3" d="M591.82,328.891c-4.281,6.324-12.879,7.976-19.201,3.694
		c-6.322-4.283-7.975-12.879-3.696-19.2c4.285-6.324,12.881-7.977,19.203-3.695C594.447,313.972,596.102,322.568,591.82,328.891z"/>
	<path opacity="0.6" fill="#E2DEC3" d="M558.803,349.619c-6.479,4.038-15.008,2.052-19.046-4.428
		c-4.034-6.484-2.052-15.01,4.425-19.046c6.484-4.038,15.01-2.056,19.049,4.425C567.265,337.053,565.285,345.579,558.803,349.619z"
		/>
	<path opacity="0.6" fill="#E2DEC3" d="M520.213,355.142c-7.561,1.059-14.546-4.222-15.603-11.782
		c-1.052-7.563,4.22-14.549,11.782-15.605c7.563-1.057,14.549,4.221,15.605,11.783C533.052,347.1,527.777,354.085,520.213,355.142z"
		/>
	<text transform="matrix(1 0 0 1 501.4688 265.8779)" font-family="'TheSerifOfficeBold'" font-size="17">PRISM</text>
	
		<image overflow="visible" width="200" height="200" xlink:href="../../../../../../../../Users/maximevaudano/Documents/Le Monde.fr/nsa/apple.png"  transform="matrix(0.1078 -0.0284 0.0284 0.1078 592.877 253.354)">
	</image>
	
		<image overflow="visible" width="200" height="203" xlink:href="../../../../../../../../Users/maximevaudano/Documents/Le Monde.fr/nsa/skype.png"  transform="matrix(0.0951 -0.025 0.025 0.0951 587.4561 286.4565)">
	</image>
	
		<image overflow="visible" width="200" height="120" xlink:href="../../../../../../../../Users/maximevaudano/Documents/Le Monde.fr/nsa/yahoo.png"  transform="matrix(0.1155 -0.0304 0.0365 0.1386 567.5146 315.8477)">
	</image>
	
		<image overflow="visible" width="100" height="100" xlink:href="../../../../../../../../Users/maximevaudano/Documents/Le Monde.fr/nsa/google.png"  transform="matrix(0.1745 -0.046 0.046 0.1745 540.3701 178.3389)">
	</image>
	
		<image overflow="visible" width="100" height="101" xlink:href="../../../../../../../../Users/maximevaudano/Documents/Le Monde.fr/nsa/yt.png"  transform="matrix(0.1693 -0.0446 0.0446 0.1693 540.7949 332.1152)">
	</image>
	
		<image overflow="visible" width="51" height="46" xlink:href="../../../../../../../../Users/maximevaudano/Documents/Le Monde.fr/nsa/pt.png"  transform="matrix(0.433 -0.114 0.114 0.433 567.7285 195.3301)">
	</image>
	
		<image overflow="visible" width="100" height="99" xlink:href="../../../../../../../../Users/maximevaudano/Documents/Le Monde.fr/nsa/fb.png"  transform="matrix(0.173 -0.0456 0.0456 0.173 589.3398 222.2646)">
	</image>
	
		<image overflow="visible" width="107" height="104" xlink:href="../../../../../../../../Users/maximevaudano/Documents/Le Monde.fr/nsa/ms.png"  transform="matrix(0.1631 -0.0429 0.0429 0.1631 507.2236 334.5664)">
	</image>
	
		<image overflow="visible" width="100" height="40" xlink:href="../../../../../../../../Users/maximevaudano/Documents/Le Monde.fr/nsa/aol.png"  transform="matrix(0.2187 -0.0576 0.0576 0.2187 504.9551 179.0039)">
	</image>
	<g>
		<g>
			
				<line fill="none" stroke="#000000" stroke-width="0.75" stroke-miterlimit="10" x1="520.305" y1="327.619" x2="521.812" y2="317.924"/>
			<g>
				<polygon points="524.232,320.433 521.67,318.84 518.744,319.579 522.5,313.5 				"/>
			</g>
		</g>
	</g>
	<g>
		<g>
			
				<line fill="none" stroke="#000000" stroke-width="0.75" stroke-miterlimit="10" x1="546.68" y1="324.768" x2="544.272" y2="315.257"/>
			<g>
				<polygon points="547.481,316.617 544.5,316.154 542.097,317.979 543.174,310.916 				"/>
			</g>
		</g>
	</g>
	<g>
		<g>
			
				<line fill="none" stroke="#000000" stroke-width="0.75" stroke-miterlimit="10" x1="570.834" y1="310.82" x2="564.896" y2="303.011"/>
			<g>
				<polygon points="568.381,303.007 565.456,303.748 563.96,306.368 562.186,299.447 				"/>
			</g>
		</g>
	</g>
	<g>
		<g>
			
				<line fill="none" stroke="#000000" stroke-width="0.75" stroke-miterlimit="10" x1="586.073" y1="289.843" x2="577.551" y2="284.981"/>
			<g>
				<polygon points="580.757,283.612 578.355,285.44 578.004,288.437 573.662,282.762 				"/>
			</g>
		</g>
	</g>
	<g>
		<g>
			
				<line fill="none" stroke="#000000" stroke-width="0.75" stroke-miterlimit="10" x1="592.805" y1="261.183" x2="583.061" y2="260.045"/>
			<g>
				<polygon points="585.475,257.53 583.98,260.152 584.83,263.048 578.613,259.525 				"/>
			</g>
		</g>
	</g>
	<g>
		<g>
			
				<line fill="none" stroke="#000000" stroke-width="0.75" stroke-miterlimit="10" x1="586.955" y1="231.936" x2="577.544" y2="234.702"/>
			<g>
				<polygon points="578.781,231.443 578.433,234.441 580.348,236.772 573.248,235.965 				"/>
			</g>
		</g>
	</g>
	<g>
		<g>
			
				<line fill="none" stroke="#000000" stroke-width="0.75" stroke-miterlimit="10" x1="570.14" y1="211.289" x2="562.562" y2="217.519"/>
			<g>
				<polygon points="562.426,214.035 563.277,216.93 565.953,218.326 559.104,220.362 				"/>
			</g>
		</g>
	</g>
	<g>
		<g>
			
				<line fill="none" stroke="#000000" stroke-width="0.75" stroke-miterlimit="10" x1="546.562" y1="197.857" x2="542.027" y2="206.556"/>
			<g>
				<polygon points="540.539,203.404 542.456,205.734 545.464,205.972 539.958,210.526 				"/>
			</g>
		</g>
	</g>
	<g>
		<g>
			
				<line fill="none" stroke="#000000" stroke-width="0.75" stroke-miterlimit="10" x1="518.666" y1="195.103" x2="519.793" y2="204.898"/>
			<g>
				<polygon points="516.793,203.123 519.688,203.978 522.312,202.488 520.305,209.346 				"/>
			</g>
		</g>
	</g>
	<path fill="none" stroke="#000000" stroke-miterlimit="10" d="M526.5,211"/>
	<path fill="none" stroke="#000000" stroke-miterlimit="10" d="M526.5,312"/>
	<path fill="none" stroke="#000000" stroke-miterlimit="10" d="M576,261.5"/>
	<path fill="none" stroke="#000000" stroke-miterlimit="10" d="M476,261.5"/>
</g>
<g id="france">
	<path opacity="0.6" fill="#B3C6BE" d="M229.613,595.323c0-57.619,56.585-104.328,126.387-104.328s126.387,46.709,126.387,104.328"
		/>
	
		<image overflow="visible" width="102" height="77" xlink:href="../../../../../../../../Users/maximevaudano/Documents/Le Monde.fr/nsa/html/img/alcatellucent.png"  transform="matrix(0.9894 0 0 0.9894 255.1191 512.9766)">
	</image>
	<text transform="matrix(1 0 0 1 436.0303 579.8486)" font-family="'TheSerifOfficeBold'" font-size="30">...</text>
	
		<image overflow="visible" width="66" height="66" xlink:href="../../../../../../../../Users/maximevaudano/Documents/Le Monde.fr/nsa/html/img/wanadoo.jpg"  transform="matrix(0.9331 0 0 0.9331 361.5112 520.5811)">
	</image>
</g>
</svg>
