<?xml version="1.0" encoding="utf-8"?>
<!-- Generator: Adobe Illustrator 17.1.0, SVG Export Plug-In . SVG Version: 6.00 Build 0)  -->
<!DOCTYPE svg PUBLIC "-//W3C//DTD SVG 1.0//EN" "http://www.w3.org/TR/2001/REC-SVG-20010904/DTD/svg10.dtd">
<svg version="1.0"
	 id="svg2" inkscape:output_extension="org.inkscape.output.svg.inkscape" inkscape:version="0.48.0 r9654" sodipodi:docname="Départements_de_France_nom+num.svg" sodipodi:version="0.32" xmlns:dc="http://purl.org/dc/elements/1.1/" xmlns:inkscape="http://www.inkscape.org/namespaces/inkscape" xmlns:sodipodi="http://sodipodi.sourceforge.net/DTD/sodipodi-0.dtd" xmlns:svg="http://www.w3.org/2000/svg" xmlns:rdf="http://www.w3.org/1999/02/22-rdf-syntax-ns#" xmlns:cc="http://creativecommons.org/ns#"
	 xmlns="http://www.w3.org/2000/svg" xmlns:xlink="http://www.w3.org/1999/xlink" x="0px" y="0px" viewBox="0 0 634.9 579.6"
	 enable-background="new 0 0 634.9 579.6" xml:space="preserve">
<path id="departement13" inkscape:label="Bouches-du-Rhône" inkscape:connector-curvature="0" d="M379.7,409.9l-5.5,3.1
	l-1.4,10.5l-5.8-0.8l-1.7,4.4l1.4,1.9l-6.3,3.9l-1.8,4.1l6.2,0.3l8.2,0.6l1.6,1.6h-2.9l-1.9,3.3l8.4,1.8l6.7-1.2l-3.5-3.3l2.3-1.9
	l3.7,1.6l1.8,3.7l11.2,0.2l2.9-1.2l0.6,1.8l-3.1,2.7l4.3,0.2l-0.8,2l-1.2,1.4h9.6l4.7,1.6l0.5,0.6l0.2-3.9l1.4-1.6l1.8-1.1l-0.2-1.1
	l-1.4-1.4h-1.4l-0.9-1.1l1.6-1.4v-0.5l-1.8-0.9v-1.4l3.9,0.2l0.9-0.7l-3.4-3.2l0.2-3.7l-2.1-1.8l1.8-3.5l4.3-2.8l-3.2-2.1l-2.3,1.8
	l-5.3,1.2l-4.3-0.5l-7.6-3.2l-4.6,0.2l-3.9-1.8l-1.4-2l-3-3.3l-7.1-3L379.7,409.9z"/>
<path id="departement84" inkscape:label="Vaucluse" inkscape:connector-curvature="0" d="M387,381.3l-2.8,0.2l-2.1,3.3l0.6,3.5
	l3.3,0.4l-0.6,1.6l-2.6,0.2l-2.9,2.9l-0.8-1l0.6-3.9l-1.2-1.4l-5.3,0.8l-1,2.1l0.6,0.3l3.3,5.5v4.4l5.8,5.8v2.5l-2.3,1.3l0.2,0.1
	l7.1,3l3,3.3l1.4,2l3.9,1.8l4.6-0.2l7.6,3.2l4.3,0.5l5.3-1.2l2.2-1.7l0.3-1.5l-4.1-4.6H411V413l1.6-1.8v-1.9l-3.5-1.8l-0.3-2.8
	l1.9-0.9v-2.5l-2.1-0.4l-0.2-2.7l0-0.2l-1.8-0.1l-2.9-2.2l-0.8-2.5l-5.5-0.4l-4.1-0.4l-0.4-2.3l1.4-2.9l-2.5,2.2l-3.9-0.4l-0.8-1.4
	l2.7-3.7L387,381.3z"/>
<path id="departement83" inkscape:label="Var" inkscape:connector-curvature="0" d="M457.8,413.2l-3,0.1l-1.4,1.4l-5.3-0.2l-4.6,3.3
	l-3.2-2.1l-5,1.6l-0.9,1.8l-3.5,2.7l-6.4-4.3l-5.2,1.7l-0.3,1.4l0.1-0.1l3.2,2.1l-4.3,2.8l-1.8,3.5l2.1,1.8l-0.2,3.7l3.4,3.2
	l-0.9,0.7l-3.9-0.2v1.4l1.8,0.9v0.5l-1.6,1.4l0.9,1.1h1.4l1.4,1.4l0.2,1.1l-1.8,1.1l-1.4,1.6l-0.2,3.9l0.5,0.7l3.5,1.6l1,3.9
	l2.2,0.4l2-1.4l3.5-2.2l6.1,0.6l-0.2,1.6l-2,1l4.7,0.2l-1.2-1.2l-0.4-2.5l2.5-1.8l2.9,1l1.2,0.4l1,1.2l1.4-1l0.4-2.6l1.6-1.3h4.1
	l1.2-1.8l2.7,0.8l3.1-1.3v-5.1l-4.1,0.2l3.1-1.9l1.6-2.2l0.4-3.1l5.7-0.8l3.2-3.5l-2.2-2.3v-1.3l-1.1-1.1l1.4-1.2l-0.3-2l-2.3-0.9
	h-1.2l-2.1-2.1l-0.4-3.7l-2.3-1.1l-2.3-0.2l-0.9-2.1L457.8,413.2L457.8,413.2z"/>
<path id="departement04" inkscape:label="Alpes-de-Haute-Provence" inkscape:connector-curvature="0" d="M463.8,364.3l-2.1,3.2
	l-3,1.8l-1.1,2.1l-2.7,0.2v1.9l-0.7,1.1l-1.1,2.7l-6.3-0.2l-3-1.6l-2,1.4l-3.7-0.2l-0.9,1.3h0.9l0.5,3.3l-0.9,0.4l-3.3-2.1v-1.3
	l-1.9-1.6h-1.1v1.8l-1.6,0.3l-3.4,1.9l-2.1,3.6l-0.5,1.8l1.3,0.3l0.2,2.8h-1.3l-1.9-1.8l-1.1,0.2l0.5,1.6l3,3.3l-1.9,0.7l-1.4-0.9
	h-3.6l-3,2.8l0,0l-0.1,1.2l-1.2-1.4l-1.6-1.4l-1,2.9l-1.8,1.6l-0.8-0.1l0,0.2l0.2,2.7l2.1,0.4v2.5l-1.9,0.9l0.3,2.8l3.5,1.8v1.9
	L411,413v1.6h4.4l4.1,4.6l0,0.1l5.2-1.7l6.4,4.3l3.5-2.7l0.9-1.8l5-1.6l3.2,2.1l4.6-3.3l5.3,0.2l1.4-1.4l3-0.1l0.1,0l-0.7-1.8
	l0.9-1.1l-0.3-1.4h2.8l0.7-0.9l2.7-1.4l2.1,1.4l1.4-0.9l-3.3-3l-3.6-3.3l-1.2-0.4l-0.2-2.7l-2.1-3.2l0.7-4.6l1.1-2.5l1.9-1.6
	l0.2-2.5l2.7-1.4l0.4-0.2v-3.8l2.8-0.4l-1.6-1.4l-2-0.6l-1-2.5l0.8-1.8l3.5-3.7l-0.6-2.8l0.5-0.5L463.8,364.3L463.8,364.3z"/>
<path id="departement06" inkscape:label="Alpes-Maritimes" inkscape:connector-curvature="0" d="M463.9,381.9l-0.4,0.2l-2.7,1.4
	l-0.2,2.5l-1.9,1.6l-1.1,2.5l-0.7,4.6l2.1,3.2l0.2,2.7l1.2,0.4l3.6,3.3l3.3,3L466,408l-2.1-1.4l-2.7,1.4l-0.7,0.9h-2.8l0.3,1.4
	l-0.9,1.1l0.7,1.8l-2.3,1.4l0.9,2.1l2.3,0.2l2.3,1.1l0.4,3.7l2.1,2.1h1.2l2.3,0.9l0.3,2l-1.4,1.2l1.1,1.1v1.3l2.2,2.3l0.2-0.2
	l0.2-4.5l3.9,0.8l1.4-1.8l2,0.4l0.2-6.1l4.5-0.4l3.9-3.5h3.5l0.2-2.2l3.5-2.1l-2-4.5l2.9-2.5l-0.6-2.9l4.3-1.4l1.2-4.3l-0.6-2.9
	l-1-1.8l-0.8-2.6l-2.9,0.2l-9.2,3.3h-2.9l-5.1-4.1l-5.1-1.4H468v-3.5l-4.1-2.5V381.9z"/>
<path id="departement05" inkscape:label="Hautes-Alpes" inkscape:connector-curvature="0" d="M447.3,339.2l-1.8,0.8l-0.4,2.9
	l-3.5,0.4l-0.6-2.8l-1.2-1.2l-3.5,0.4l-1.4,1.2l-0.8,4.1l0.6,1l4.1,0.4l0.8,2.5l1.6,0.8v4.3l-3.7-0.2l-1.6,1.8l-4.5-0.8l-2.5,2.2
	l-1.8-0.8l-2.5,2l1,1.8l-1.6,1.6h-4.9v2.3l1.6,0.8l-0.6,1.4l-3.3,1.3l-4.1,0.4l-1.2,3.7l-0.2,2.3l2.2,1.8l-2.2,2.5l-2.7-1.4
	l-3.1-0.2l-0.4,1.8l2,1.4l-2.4,1.6l0.8,3.3l6.6,1.8l1.2,2.5l1.9,0.4l-0.7,6.1l0,0l3-2.8h3.6l1.4,0.9l1.9-0.7l-3-3.3l-0.5-1.6
	l1.1-0.2l1.9,1.8h1.3l-0.2-2.8l-1.3-0.3l0.5-1.8l2.1-3.6l3.4-1.9l1.6-0.3v-1.8h1.1l1.9,1.6v1.3l3.3,2.1l0.9-0.4l-0.5-3.3h-0.9
	l0.9-1.3l3.7,0.2l2-1.4l3,1.6l6.3,0.2l1.1-2.7l0.7-1.1v-1.9l2.7-0.2l1.1-2.1l3-1.8l2.1-3.2l2.5,0.1l1.8-2l2.1,0.2v-1.8l-2.7-1.4
	l-0.6-5.7l-2.2-0.8l-2.7,0.4l-5.1-2.6l-0.8-5.8l-2.9-1l-1-2l-1.3-2.8L447.3,339.2z"/>
<path id="departement48" inkscape:label="Lozère" inkscape:connector-curvature="0" d="M320.8,352.3l-5.5,2l-1.6,3.5l-3.5-2.3
	l-2.8,8.6l-2.8,6.5l4.1,5l-0.3,3.9l2.8,1.9v4.7l0.8,6.6l3.3,1.4l-0.3,2.2l4.7-0.8l1.7,0.8l-1,0.9l6,4l5.2-1.1l0.9-1.3l-0.7-1.8
	l2.1-0.5l3,2.8l5.1,0.5l2.3-3.5v-3l1.4-1.6l-1.3-0.3v-4.1l-2.8-3l2.3-0.4l1.2-1.1l1-1.9l-1-0.6l0.6-4.1l-3.3-3.6l-1.4-7.2l-5-6.3
	l-3.6,0.9l-0.8-2.7h-2l-0.4,2.3l-5.1,1.6L320.8,352.3z"/>
<path id="departement03" inkscape:label="Allier" inkscape:connector-curvature="0" d="M301.6,248l-2.7,3.5l-1.6,0.2l-1.8,1.8
	l-2-2.2l-5.3,5.3v3.1l1,0.8l0.2,1.6l-2.7,2.1l-2.6-0.8l-4.9,1l-2.5,2.9l-0.9,2l0.2,0l2.3,3.3v2.3l1.3,1.8l1.4-1.8l1.6,2.8l2.2,0.8
	l2.2,5.1l0.1,1.5l3,2.3l1.6-0.7l1.3-3l1.2-0.3v-1.6l2.1-0.2l0.2,1.1l2.7-3h3l0.5,1.1l-1.4,1.9l2.1,2.3l0.4,1.4l4.9,2.8l6,0.9
	l1.8-0.2l2.7,0.5l2.3-1.4l1.8,0.9l0.3,2.5l2.3,0.5l3-0.2l0.9,2.1l2.8,1.1l0.1-1l4.7-0.2l-0.4-11.1l-1.4-2.7l0.6-2.2l3.3-0.6l0.1-0.2
	l4.1-3.1l0.2-7.6l-1.4-1.9h-3.1l-1.2-1.6h-3.3l-1-1.2v-2.9l-3.9-7.4l-1.9-1.4l-3.7,5.1l-1.6,0.4l-0.6-2.5l-1.8-0.8l-0.8,1.6h-2.9
	l-0.4-1.8l-2,1.2L312,255l-2.3-2.6l-3.3-1.6l-0.2-2.5L301.6,248z"/>
<path id="departement30" inkscape:label="Gard" inkscape:connector-curvature="0" d="M346.2,381l-1,1.9L344,384l-2.3,0.4l2.8,3v4.1
	l1.3,0.3l-1.4,1.6v3l-2.3,3.5l-5.1-0.5l-3-2.8l-2.1,0.5l0.7,1.8l-0.9,1.3l-5.2,1.1l-6-4l-1.2,1v2.8l-2.2,0.5l0.6,2.2l2.8,0.6h3
	l0.8,3.8l-3.6,1.7v1.8l2.8,1v1.6l1.3,0.7l1.1-0.9h1.4l0.7,1.6h2.1l1.1-3.7h1.8l2.7-3.3l3.2,0.3l0.5,4.6l1.2,1.4l2-1.1l3.3,1.8
	l1.3,2.1l5.8,3.5l2.1,5v2.6l-3.7,2.1l-2.4,2.2l3,0.2v3.9l4.5-0.2l2.4,0.1l1.8-4.1l6.3-3.9l-1.4-1.9l1.7-4.4l5.8,0.8l1.4-10.5
	l7.7-4.4v-2.5l-5.8-5.8v-4.4l-3.3-5.5l-6.9-3.9l-0.5,3l-2.8,0.3l-0.8-3l-2.8,0.5l-0.5,3.9l-2.2-0.8l-4.7-3.1l-2.2,1.1v-5.5
	L346.2,381z"/>
<path id="departement11" inkscape:label="Aude" inkscape:connector-curvature="0" d="M274.3,438.5l-0.3,3.6l-3.6-1.1h-3.9l0.3-1.4
	l-1.9,0.3l-4.1,1.4l-1.4-2.5l-2.8,2.5l0.8,1.9l-3.1,1.4l-0.5,3l-2.5,1.1l2.2,2.5l-0.6,1.7l9.7,4.7l0.8,6.7v3.6l0.6,4.7h-5l-1.4,1.9
	l6.3,5.3l3.6-1.9l4.4,5.3l-0.7,0.1l0.8,0.5l7.9-3.9l-1.9-2.8l-0.2-3.3h18.5l-0.3-2.5l4.3-2.3l4.9,3.9l2.6,1.2l-0.2-5.6l0.2-6.4
	l-2.3,0.2l-2-2.9l1.6-2.6l3.3,3.1l2.9-2.3l2-1.9l0.3-2.1l-2.5-0.1l-0.9-2.8l-2.5-0.2l-2.3-3.4l-1.8,0.2l-2.1-1.3l-0.4-3l-1.1,0.5
	l0.5,2.1h-2.5l-0.2,3.5l-3.7,1.3l-1.8-3.7l-2.5,1.6l-2.1-1.6l-1.1-2.5l1.8-2.1l-0.8-2.3l-0.2,0.1H282l-6.1-1.1H274.3z"/>
<path id="departement34" inkscape:label="Hérault" inkscape:connector-curvature="0" d="M335.5,408.4l-2.7,3.3h-1.8l-1.1,3.7
	h-2.1l-0.7-1.6h-1.4l-1.1,0.9l-1.3-0.7v-1.6l-2.8-1v1l-3.3,0.5l-1.7,1.4l0.5,3.3h-3l-3-1.7h-1.7v1.9l0.3,5.8h-3.3h-1.7l-1.1,2.2
	l-7.2,2.5l-2.8-1.9l-1.7,2.5l-0.8,2.8l3,2.8l-1.1,3.6l-4.2,1.3l0.8,2.3l-1.8,2.1l1.1,2.5l2.1,1.6l2.5-1.6l1.8,3.7l3.7-1.3l0.2-3.5
	h2.5l-0.5-2.1l1.1-0.5l0.4,3l2.1,1.3l1.8-0.2l2.3,3.4l2.5,0.2l0.9,2.8l2.5,0.1l0.1-1.1l7-2.2l0.8-1.8l5.5-0.2l1.8-2.2l10.6-8.4
	l6.6-4.7l2.7,0.2l2.4-2.2l3.7-2.1v-2.6l-2.1-5l-5.8-3.5l-1.3-2.1l-3.3-1.8l-2,1.1l-1.2-1.4l-0.5-4.6L335.5,408.4z"/>
<path id="departement66" inkscape:label="Pyrénées-Orientales" inkscape:connector-curvature="0" d="M300.5,468.7l-4.3,2.3
	l0.3,2.5h-18.5l0.2,3.3l1.9,2.8l-7.9,3.9l-0.8-0.5l-6.5,0.5l-0.8,1.7l-3.3,0.8l-2.2,1.9l-6.1,1.4l0.3,2.1l2.9,2.8l5.8,1.6l0.2,3.5
	l3.1,2.8l2.3-0.4l3.3-4.1l4.1-0.8l6.4,2.2l5.5,4.7l1.6-2h1.4l1.4,1l1.2-0.6l0.2-2.8l5.9-1.4l1.9-2.5l2.9-1h4.1l2.6,2.7l3.1,0.2v-3.1
	l-1.6-2.2l-2.8-1.2l-0.4-17.1l-2.6-1.2L300.5,468.7z"/>
<path id="departement15" inkscape:label="Cantal" inkscape:connector-curvature="0" d="M285.8,323.7l-0.6,2.2l1,2.3l-1.2,1.4h-1.9
	l-2-2.2l-1.8-1l-0.2,5.5l-3.5,2.2l-2.5,3.5l0.6,3.5l-0.8,1.6l-1,3.1h-1.6l-1.6,1.9l1.2,1.2l0.8,1.9l-2.5,1.8l1,6.5l3.3,2.5l-2.5,5.8
	l2.5,1.1l-1.1,3.3l2.2,0.3l1.7-2.8h2.8l0.5,0.8h6.1l1.1-2.5l1.4-0.6l0.6-4.4h1.4v-4.7l5.5-4.7l0.6,0.8l0.5,3.6l3.9-0.6l0.8,5.5h1.9
	l0.6,5.5l1.7,2.1l2.8-6.5l2.8-8.6l3.5,2.3l1.6-3.5l5-1.8v-1.7l-1.1-1.6l-2.1-1.3l1.1-1.6l-0.9-0.9l1.1-0.3l1.3-1.1l-2.1-0.2
	l-1.1-1.4l-0.3-3.7l-1.3-1.3l-0.9-3.2h-4.4l-0.9-2.5l-1.4-0.2l-0.7,1.4l-2.8-0.2l-2.7-4.1l-1.1-0.2l-2.1-1.1l-1.3,1.2h-3.2l-1.6-3.3
	L285.8,323.7z"/>
<path id="departement43" inkscape:label="Haute-Loire" inkscape:connector-curvature="0" d="M317.8,326.3l-1.4,0.7v1.2l-2.1,0.2
	l-1.9,1.6l-3.5,0.5l-0.8,1.2l0.6,0.1l0.9,2.5h4.4l0.9,3.2l1.3,1.3l0.3,3.7l1.1,1.4l2.1,0.2l-1.3,1.1l-1.1,0.3l0.9,0.9l-1.1,1.6
	l2.1,1.3l1.1,1.6v1.7l0.5-0.2l3.5,9l5.1-1.6l0.4-2.3h2l0.8,2.7l3.6-0.9l4.5,5.8l2.8-4.5l5.1-3.7h4.7l1.6-4.9l3.1-0.2l0.2-3.7h2.9
	l-0.6-1.4l-0.8-2.5l1.2-2l2.8-1.2l1.2-4.7l-2.5-2.9l-3.1,0.2l0.4-3.7l-6.3-2.7l-2.1,0.2l-4.3,3.5l-3.9-1.3l-0.8,0.8l-2.5-0.7
	l-1.8-1.8l-1.1,2.1l-3-0.2l-1.4-1.3l-1.1,2.5l-1.9-0.9l-1.3-2.3h-1.6l-1.4-1.2l-2.1,0.9l-2.5,0.2l-1.4-0.9l-0.9,0.5L317.8,326.3z"/>
<path id="departement63" inkscape:label="Puy-de-Dôme" inkscape:connector-curvature="0" d="M299.1,279.5l-2.7,3l-0.2-1.1
	l-2.1,0.2v1.6l-1.2,0.3l-1.3,3l-1.6,0.7l-3-2.3l0.3,4.6l1.6,1.9l0.8,3.7l-2.3,1.8l-0.6,2.8l-2.2,1.2l-3.7,2.2l0.4,1.8l4.5,4.5
	l0.4,2.8l-1.8,2.9v2.8l1.2,1.4l0.6,3.3l-0.4,1.3l6,1.8l1.6,3.3h3.2l1.3-1.2l2.1,1.1l1.1,0.2l2.7,4.1l2.8,0.2l0.7-1.4l0.8,0.1
	l0.8-1.2l3.5-0.5l1.9-1.6l2.1-0.2v-1.2l1.4-0.7l0.4,0.9l0.9-0.5l1.4,0.9l2.5-0.2l2.1-0.9l1.4,1.2h1.6l1.3,2.3l1.9,0.9l1.1-2.5
	l1.4,1.3l3,0.2l1.1-2.1l1.8,1.8l2.5,0.7l0.8-0.8l-1.5-0.5l-0.6-2.3l3.7-3.5l-1.8-6.4l-5.1-3.3l-2.1-5.1l-2.3-3.1l0.6-4.3l1.8-1.8
	l-3.1-2.5l0.1-0.8l-2.8-1.1l-0.9-2.1l-3,0.2l-2.3-0.5l-0.3-2.5l-1.8-0.9l-2.3,1.4l-2.7-0.5l-1.8,0.2l-6-0.9l-4.9-2.8l-0.4-1.4
	l-2.1-2.3l1.4-1.9l-0.5-1.1L299.1,279.5L299.1,279.5z"/>
<path id="departement65" inkscape:label="Haute-Pyrénées" inkscape:connector-curvature="0" d="M179.2,428.5l-1.9,1l0.3,0
	l3.3,5.5l-2.2,2l1.6,2.3l2.3,3.5l-1.9,2.5l-3.1,7l-5.3,4.5l1.4,2.8l-1.2,0.8l-2.9-0.6l-0.8,6.4l-1.6,1.2l-0.3,4l0.5-0.3l3.3,2
	l3.9,2.9l0.4,2.3l3.1,2.5h2.6l6.4-2.8l2.7,3.1l3.7,1l1.4-2.3l1.8,0.8l3.8,0.3l-0.3-10.5h2l1.8,0.9l1.3-1.2l-0.2-1.9l2.5-1.4
	l-0.9-3.7l-1.1-0.9l-2.1,0.7l1.1-1.8l-0.5-2.3l-3.2-2.3l0.2-1.6l1.8-3l2.3-0.9v-1.3l1.4-2.1l0.9-1.3l-3.6-1.8H199l-0.7-1.4h-2.5
	l-0.7-1.6h-2.3l-0.7,0.7h-2.7l-0.2-1.6l-2.1-1.4l0.7-0.7l0.3-1.8l-0.5-0.5l-1.1-2.8l-2.3-0.3l-2.3-1.3l0.2-3.3L179.2,428.5
	L179.2,428.5z"/>
<path id="departement64" inkscape:label="Pyrénées-Atlantiques" inkscape:connector-curvature="0" d="M172.2,428.9l-2.8,1.6
	l-5.7-0.2l-0.5-0.9l-3.7,1.3l-2.8,0.9l-2.1-1.6l-2.3,0.7l-0.7-0.9h-2.8l-1.8,0.9l-4.6-0.2l-2.5,1.9l-4.4-0.3l-0.9,1.3l-1.1-0.4
	l1.4-1.4l-2.5-1.9l-3,2.7l-5.1,0.3l-5.6-2.8l-0.8,1.4l-4.5,5.5l-3.5,1.4l-2.5,0.4v2.2l2.3,2.2l3.5,0.2l0.2,2.5l2.8,0.2l0.8-1.8
	l3.7,1.6l2.3,0.6l0.6,2.3l-1.3,1.2v3.7l-2.8,1.4l-0.2,1.8l1.8,2l3.1,1l0.6-2.9l1.8-1.9l-0.2,2.5l1.4,2h3.5l1.6,2.1l4.7,0.8l4.5,2.8
	h7.4l0.4,4.1l5.1,3.9l2,2.3l2.2-1.2l1.9-0.4l1,1l1.8-1l3.4-1.9l0.3-4l1.6-1.2l0.8-6.4l2.9,0.6l1.2-0.8l-1.4-2.8l5.3-4.5l3.1-7
	l1.9-2.5l-2.3-3.5l-1.6-2.3l2.2-2l-3.3-5.5l-5.3-0.4L172.2,428.9z"/>
<path id="departement40" inkscape:label="Landes" inkscape:connector-curvature="0" d="M139.8,374.4l-6.2,3.2l-1.6,0.1l-3.5,18.6
	l-4.5,17.2l-1.4,6.7l-1.2,4.7l-2.9,5l5.6,2.8l5.1-0.3l3-2.7l2.5,1.9l-1.4,1.4l1.1,0.4l0.9-1.3l4.4,0.3l2.5-1.9l4.6,0.2l1.8-0.9h2.8
	l0.7,0.9l2.3-0.7l2.1,1.6l2.8-0.9l3.7-1.3l0.5,0.9l5.7,0.2l2.8-1.6l-1.4-2.4l1.4-3.7l1.9-2.5l-0.6-3.3l1.6-1.6l-2.3-3.9l1.9-2.3
	l2.2-0.4l1.9,0.8l2.8-2.3l1,2.9l1,1.4l2.2-0.6l-0.2-2.5l0.6-1.4l-0.5-1.2l0.5-3.9l2.1-2.1l-1.1-1.3l-2.3-0.2l-2.7-1l-3.9,0.3
	l-0.7-4.3l-2.5-3l-1.1-0.3l0.4,3.5v1.1l-3.4,0.2l-3.5-1.2l-0.7-4.4l-2.5-2.7l-1.8-0.2l-0.2-1.6l-1.9-1.3l-3.2-0.9l0.9-1.1v-1.1
	l-1.1-0.9l-1.2-1.1l-3.6,0.5l-2.1,1.8l-1.4,0.2l-2.3-1.6l-3.4,1.4l-1.6-1.1l1.4-1.8l0.2-2.3L139.8,374.4z"/>
<path id="departement33" inkscape:label="Gironde" inkscape:connector-curvature="0" d="M141.3,315.2l-3.1,4.7l-1,16.4l-2.5,16.6
	l-1.8,12.9l-0.2,3.3l1.4-4.5l2.7-3.5l3.9,3.5l0.4,1.2l1.2,1.6l-4.9,0.2l-0.8-1.2l-1.9,0.8l-0.4,2.9l-2.2,2.9v4.5l0,0.2l1.6-0.1
	l6.2-3.2l3.3,1.2L143,378l-1.4,1.8l1.6,1.1l3.4-1.4l2.3,1.6l1.4-0.2l2.1-1.8l3.6-0.5l1.2,1.1l1.1,0.9v1.1l-0.9,1.1l3.2,0.9l1.9,1.3
	l0.2,1.6l1.8,0.2l2.5,2.7l0.7,4.4l3.5,1.2l3.4-0.2v-1.1l-0.4-3.5l1.1,0.3l2,2.4l3.1-0.5l1.4-1.4l-0.2-1.9l-1.3-1.1l0.4-2h1.9
	l1.9-1.2l-0.9-1.8l-0.5-2.7l1.4-2.5l3-4.6l1.8-2.1l1.6-0.5l0.3-1.8l-2.1-0.2l-0.9-1.9l0.7-1.9l2.5-0.5l1.8-0.5l2.1-0.3l-0.1-0.1
	l-0.2-3.9l1.9-1.4l-2.5-1.6l-2.5,3l-6,0.2l-0.5-1.4l-1.8-0.9l1.4-1.8v-1.9l-0.7-1.1v-1.1l1.8-1.1l0.5-3.2l1.1-2.8l-1.1-1.6h-1.9
	l-1-1.2l-1,2.1l-1.9-1.4l-2.8,1.4l-2.3-0.4l-4.5-4.5l-2.8-0.2l-0.8-6.3l-5.1-0.6l-0.2-2.9l-1,1h-5.8l0.3,1.3l1.4,5.7l0.4,5.7l-1,1.6
	l-1-4.7l-2.8-10.7l-10-9l0.2-4.1L141.3,315.2L141.3,315.2z"/>
<path id="departement24" inkscape:label="Dordogne" inkscape:connector-curvature="0" d="M209.8,310.5l-1.8,3.1l-2.8,0.4l-0.2,4.7
	l-9.2,6.3l-0.2,6.8l-3.5,3.5l-1.9,1.8l-3.9-0.4l-2.2,3.7l-0.6,1.2l1,1.2h1.9l1.1,1.6l-1.1,2.8l-0.5,3.2l-1.8,1.1v1.1l0.7,1.1v1.9
	l-1.4,1.8l1.8,0.9l0.5,1.4l6-0.2l2.5-3l2.5,1.6l-1.9,1.4l0.2,3.9l2.8,2l0.3,3.7l3,1.1l1.8-1.6h3.9l2.1-1.8l1.3,0.2l0.3,1.4h3.9
	l0.9-1.1l1.4,0.2l1.6,1.8v1.3l-1.4,0.9l0.5,1.3l1.9,0.2l2.5-2.3h2.1l1.4,1.6l3.1,1.3l0.2-0.5l1.8-1.8l0.2-2.9l4.3-0.4l2.8-3.9
	l-1.2-0.4l-0.2-2.1l3.3-0.4l0.2-1.9l1.6-1l1.8-3.1l-1.8-1.9v-2.2l1.3-1.2l-1.8-2.8l0.2-4.3l-4.3,0.2l-1.8-1.2l1.6-1.9l-2.2-1.8
	l1.6-2l-1.6-0.8v-2.7l3.9-3.5l-2.2-1.8l-1.2-2.9l-4.1-0.6l-1.4-1l2.9-1.4l-1-1.3l-4.3-0.6l-1-3.9l-6.3-0.6l-1.4,2l-1.3,0.4l-1.8-2.3
	l0.8-2.2l-1-1.9L209.8,310.5z"/>
<path id="departement47" inkscape:label="Lot-et-Garonne" inkscape:connector-curvature="0" d="M195.3,363.4l-2.1,0.3l-1.8,0.5
	l-2.5,0.5l-0.7,1.9l0.9,1.9l2.1,0.2l-0.3,1.8l-1.6,0.5l-1.8,2.1l-3,4.6l-1.4,2.5l0.5,2.7l0.9,1.8l-1.9,1.2h-1.9l-0.4,2l1.3,1.1
	l0.2,1.9l-1.4,1.4l-3.1,0.5l0.5,0.6l0.7,4.3l3.9-0.3l2.7,1l2.3,0.2l1.1,1.3l-2.1,2.1l-0.5,3.9l0.5,1.2l0.8-1.6l2.3,2l3.1-3.1
	l1.4,1.9l3.3-0.6l3.5-0.4l1.6-2.8l5.8-0.6l2.9,2.9l1-1l1.9-0.6l-0.8-2.7l2.9-0.8l3.7-0.8l-0.8-2.3l1.2-1.4l1-3.7l-2.2-2.3l1.4-4.5
	l2.9,1.8l4.3-0.8l-2-4.3l-1.6-5.8l3.9-0.2l0.8-2.1l-3.1-1.3l-1.4-1.6H222l-2.5,2.3l-1.9-0.2l-0.5-1.3l1.4-0.9v-1.3l-1.6-1.8
	l-1.4-0.2l-0.9,1.1h-3.9l-0.3-1.4l-1.3-0.2l-2.1,1.8h-3.9l-1.8,1.6l-3-1.1l-0.3-3.7L195.3,363.4z"/>
<path id="departement46" inkscape:label="Lot" inkscape:connector-curvature="0" d="M247.5,347.3l-4.2,1.9l-0.6,0.1l0.1,0.2
	l-1.3,1.2v2.2l1.8,1.9l-1.8,3.1l-1.6,1l-0.2,1.9l-3.3,0.4l0.2,2.1l1.2,0.4l-2.8,3.9l-4.3,0.4l-0.2,2.9l-1.8,1.8l-1,2.6l-3.9,0.2
	l1.6,5.8l1.7,3.6l2.5-0.1l0.2,1l-1.4,1.6l1.1,2.1h1.6l1.8,1.9h1.6l1.3-1.4l0.3,0.4v1.8l0.5,2.3l3.7,0.2l3-3.2l1.6-0.2l0.5,0.9
	l0.9,1.9h1.4l0.5-3.5l3,0.4l1.8-2.1l2.8,0.7l4.3-1.9l0,0.4l1.4-1.4l-1.8-2.7l-0.7-3.5l2.3-1.9l1.1,0.3l3.2-3.5l1.8,0.2l0.7-0.9h3.5
	l1.3-1.4l0.3-1.1l-1.6-0.2l1.1-3.3l-2.5-1.1l2.5-5.8l-3.3-2.5l-1.1-7.2l-3-0.8l-2.2,2.2l-1.1-1.9l-3.3,3.3l-2.2,0.3l-3.8-5.5
	L247.5,347.3L247.5,347.3z"/>
<path id="departement09" inkscape:label="Ariège" inkscape:connector-curvature="0" d="M237.2,446.4l-1.3,0.9l-0.5,1.1l2.5,1.8
	l0.7,1.3l-0.5,1l-4.3,0.4l-1.2,1.8l0.2,0.5l1.6,0.5l0.9,1.3l-1.1,1.8l-1.3-0.2l-1.9-1.8l-2.3-0.7l-2.3,0.2l-4.1,2.5l0.2,3.4l1.1,0.7
	l-0.7,2.6l-4.6,1.3l-1.8,2.1v3.5l0.7,1.1l-1.7,1.5l1.1,0.6l6,1.2h2.6l3.3,4.3l8.4-0.4l3.3,5.3l2.9-1.2l8.6,1.2l0.6,3.6l6.1-1.4
	l2.2-1.9l3.3-0.8l0.8-1.7l7.2-0.5l-4.4-5.3l-3.6,1.9l-6.3-5.3l1.4-1.9h5l-0.6-4.7v-3.6l-0.8-6.7l-9.7-4.7l0.6-1.7l-1.8-2.1l-1.6,0.7
	l-2.1,0.3l-3.9-1.8L243,448l1.6,1.9l-0.7,1.6l-3.4-0.3l-0.2-1.8l-2-2.7L237.2,446.4z"/>
<path id="departement32" inkscape:label="Gers" inkscape:connector-curvature="0" d="M207.9,401.9l-5.8,0.6l-1.6,2.8l-3.5,0.4
	l-3.3,0.6l-1.4-1.9l-3.1,3.1l-2.3-2l-1.4,2.9l0.2,2.5l-2.2,0.6l-1-1.4l-1-2.9l-2.8,2.3l-1.9-0.8l-2.2,0.4l-1.9,2.3l2.3,3.9l-1.6,1.6
	l0.6,3.3l-1.9,2.5l-1.4,3.7l1.6,2.8l4.9,0.3l1.9-1h3l-0.2,3.3l2.3,1.3l2.3,0.3l1.1,2.8l0.5,0.5l-0.3,1.8l-0.7,0.7l2.1,1.4l0.2,1.6
	h2.7l0.7-0.7h2.3l0.7,1.6h2.5l0.7,1.4h4.8l3.6,1.8l0.3-0.4l1.9-1.1l3.5-4.6l6.6,0.5l2.8,1.9l0.9-1.3l1.4-4.2l1.8-4.1l3.7-1.6
	l1.8-0.7l-0.5-1.6l-1.8-0.2l-0.7-1.8h-1.4l-2.3-2.3l0.2-1.6l-3-3l-0.5-1.9l-1.9,0.8l-0.5-1.1l1.3-1.9l-1.4-1.4v-2.5l-1.2-1.3
	l-3.9-0.2v-2.3l2.1-1.6v-1.8l2.3-1.1l-1.3-0.7l-1.4,0.7h-2.8l-0.9-0.8l-0.5,0.2l-1,1L207.9,401.9z"/>
<path id="departement31" inkscape:label="Haute-Garonne" inkscape:connector-curvature="0" d="M245,412.4l-2.8,1.1l-0.9,1.4
	l-1.1-1.2l-1.9-0.2l-0.4,1.8l-1.2,0.5l1.8,0.9l-1.2,1.9l-4.4,1.3l-1.9-2.3h-1.8l-1.4,0.9h-5.1l-0.5,0.2l0.5,1.9l3,3l-0.2,1.6
	l2.3,2.3h1.4l0.7,1.8l1.8,0.2l0.5,1.6l-1.8,0.7l-3.7,1.6l-1.8,4.1l-1.4,4.2l-0.9,1.3l-2.8-1.9l-6.6-0.5l-3.5,4.6l-1.9,1.1l-1.3,1.8
	l-1.4,2.1v1.3l-2.3,0.9l-1.8,3l-0.2,1.6l3.2,2.3l0.5,2.3l-1.1,1.8l2.1-0.7l1.1,0.9l0.9,3.7l-2.5,1.4l0.2,1.9l-1.3,1.2l-1.8-0.9h-2
	l0.3,10.5l7.9,0.5l0.4-9.6l2.7,0.4l4,2.3l1.7-1.5l-0.7-1.1v-3.5l1.8-2.1l4.6-1.3l0.7-2.6l-1.1-0.7l-0.2-3.4l4.1-2.5l2.3-0.2l2.3,0.7
	l1.9,1.8l1.3,0.2l1.1-1.8l-0.9-1.3l-1.6-0.5l-0.2-0.5l1.2-1.8l4.3-0.4l0.5-1l-0.7-1.3l-2.5-1.8l0.5-1.1l1.3-0.9l1.2,0.3l2,2.7
	l0.2,1.8l3.4,0.3l0.7-1.6L243,448l1.1,0.3l3.9,1.8l2.1-0.3l1.6-0.7l-0.4-0.4l2.5-1.1l0.5-3l3.1-1.4l-0.8-1.9l2.8-2.5l1.4,2.5
	l4.1-1.4l0.8-0.1l0.1-1.3v-2.5l-2.1,0.4l-2.7-0.7l-2.3-2.8l-0.9-1.3l-4.6-1.9l-1.1-1.6l1.4-0.5v-1.9l-1.4-1.6l-1.8-2.8l-0.2-2.5
	l-0.5-0.3l-2.1-2.5l-0.9-2.6L245,412.4z"/>
<path id="departement82" inkscape:label="Tarn-et-Garonne" inkscape:connector-curvature="0" d="M220.2,384.7l-1.4,4.5l2.2,2.3
	l-1,3.7l-1.2,1.4l0.8,2.3l-3.7,0.8l-2.9,0.8l0.8,2.7l-1.5,0.4l0.9,0.8h2.8l1.4-0.7l1.3,0.7l-2.3,1.1v1.8l-2.1,1.6v2.3l3.9,0.2
	l1.2,1.3v2.5l1.4,1.4l-1.3,1.9l0.5,1.1l2.5-1.1h5.1l1.4-0.9h1.8l1.9,2.3l4.4-1.3l1.2-1.9l-1.8-0.9l1.2-0.5l0.4-1.8l1.9,0.2l1.1,1.2
	l0.9-1.4l2.8-1.1l1.3,0.6l1-1.7l-1.8-1.9h3.3l1.1-1.9l2.3-2.1h-2.3l0.7-3l6-0.7l2.3-1.4l2.8-1.1l0.9-0.9l-1.1-2.8l1.6-3.2l-2.8-0.2
	l-0.3-4.4l-4.3,1.9l-2.8-0.7l-1.8,2.1l-3-0.4l-0.5,3.5h-1.4l-0.9-1.9l-0.5-0.9l-1.6,0.2l-3,3.2l-3.7-0.2l-0.5-2.3v-1.8l-0.3-0.4
	l-1.3,1.4h-1.6l-1.8-1.9h-1.6l-1.1-2.1l1.4-1.6l-0.2-1l-2.5,0.1l0.3,0.7l-4.3,0.8L220.2,384.7L220.2,384.7z"/>
<path id="departement12" inkscape:label="Aveyron" inkscape:connector-curvature="0" d="M294.7,353.4l-5.5,4.7v4.7h-1.4l-0.6,4.4
	l-1.4,0.6l-1.1,2.5h-6.1l-0.5-0.8h-2.8l-1.7,2.8l-0.6-0.1l-0.3,1.1l-1.3,1.4H268l-0.7,0.9l-1.8-0.2l-3.2,3.5l-1.1-0.3l-2.3,1.9
	l0.7,3.5l1.8,2.7l-1.4,1.4l0.3,4l2.8,0.2l-1.6,3.2l1.3,3.2l1.6-0.9l0.7,1.6l2.3-2.3l3.4-0.2l3.3,2.5l5.8,1.1l2.1,3.7l3,1.4l1.6,4.1
	l-0.2,1.6l1.9,3.6v1.9l3.5,4.6l3.4,1.8l2.1-0.5l1.1-1.4l1.6,0.4l3.7,2.3h0h1.6h3.3l-0.3-5.8v-1.9h1.7l3,1.7h3l-0.5-3.3l1.7-1.4
	l3.3-0.5v-2.8l3.6-1.7l-0.8-3.8h-3l-2.8-0.6l-0.6-2.2l2.2-0.5v-2.8l2.2-1.9l-1.7-0.8l-4.7,0.8l0.3-2.2l-3.3-1.4l-0.8-6.6v-4.7
	l-2.8-1.9l0.3-3.9l-5.8-7.2l-0.6-5.5h-1.9l-0.8-5.5l-3.9,0.6l-0.5-3.6L294.7,353.4L294.7,353.4z"/>
<path id="departement81" inkscape:label="Tarn" inkscape:connector-curvature="0" d="M270.8,396.9l-3.4,0.2l-2.3,2.3l-0.7-1.6
	l-1.6,0.9l-0.2-0.4l-0.9,0.9l-2.8,1.1l-2.3,1.4l-6,0.7l-0.7,3h2.3l-2.3,2.1l-1.1,1.9h-3.3l1.8,1.9l-1,1.7l0.3,0.1l0.9,2.6l2.1,2.5
	l0.5,0.3l0.2,2.5l1.8,2.8l1.4,1.6v1.9l-1.4,0.5l1.1,1.6l4.6,1.9l0.9,1.3l2.3,2.8l2.7,0.7l2.1-0.4v2.5l-0.1,1.3l1.2-0.2l-0.3,1.4h3.9
	l3.6,1.1l0.3-3.6h1.7l6.1,1.1h5.8l4.4-1.4l1.1-3.6l-3-2.8l0.8-2.8l1.7-2.5l2.8,1.9l7.2-2.5l1.1-2.2l-3.7-2.3l-1.6-0.4l-1.1,1.4
	l-2.1,0.5l-3.4-1.8l-3.5-4.6v-1.9l-1.9-3.6l0.2-1.6l-1.6-4.1l-3-1.4l-2.1-3.7l-5.8-1.1L270.8,396.9z"/>
<path id="departement01" inkscape:label="Ain" inkscape:connector-curvature="0" d="M383.3,262.6l-2.2,0.2l-1.4,2.5l-3.7,14.4
	l-0.5,1.2l-0.4,4.6l-1.1,1.5v6.6l-0.6,1.5l3.8,2.3l1.5,0.2l2.3,2.1l0.4,3.4l2.6-0.8l4,1.2l0.1-0.8h1.9l2.8,2.6l2.6-1.3l1.3-3.8
	l1.3-1.5l1.7,0.2l1.7,1.5l0.9,2.8l7.8,9.6l2.3-1.7l0.4-3.6l2.6-0.4v-6.4l1.3-1.1l0.4-5.7l0.5,0.4l-0.1-2.1l-1.1-1.9l0.4-5.5l1.9,1.1
	l1.1-1.9l1.9-0.6l2-1.6h-2.1v-3.7l2.3-1.4l3.5-0.4l0.2-2l-1.2-0.8l2.9-3.7l-0.4-1.2l-3.3-1.8l-8.1,8.9h-5.7v-2.3l-3.1-1.6l-3.7,4.1
	l-2.9,0.4v-2.8l-2.5-1.2l-3.9-5.5l-3.5-1.4l-1.2-2.5l-2-0.4L387,264l-1.6,0.4L383.3,262.6z"/>
<path id="departement38" inkscape:label="Isère" inkscape:connector-curvature="0" d="M397.9,298.7l-1.3,1.5l-1.3,3.8l-2.6,1.3
	l-2.8-2.6h-1.9l-0.2,2.8l2.8,2.3l-4.3,5.5l-5.5,1.3l-4.3,1.5l2.8,2.8l0.7,1.3l-4.3,2.1l-0.4,6.2l-0.1,0.1l1.2,2.5l3.4,1.1l2.3-0.8
	l2.8-1.9l3.6,3h3l2.1,3l-0.9,2.1l0.4,3l-1.1,3l0.4,1.1l1.5-0.4l3.4,1.1l4.5,1.3l1.9-1.3l0.8-1.5h0.7l0.2,15.9l1.1,1.1h2.8l2.5,1.5
	l1.9,1.5l1.9,0.2l1.3,1.1l3.5,0.4l0.3-0.6l-1.6-0.8v-2.3h4.9l1.6-1.6l-1-1.8l2.5-2l1.8,0.8l2.5-2.2l4.5,0.8l1.6-1.8l3.7,0.2v-4.3
	l-1.6-0.8l-0.8-2.5l-4.1-0.4l-0.6-1l0.8-4.1l1.4-1.2l-1.1-1.5l-2.1-1.3l-1.3,1.3l0.4-1.7v-1.7l-1.7-1.7l0.9-4l1.9-1.1l-0.2-2.8l-4-4
	h-1.5l-1.1,1.5l-2.5-3.4l-1.5,0.2l-1.3,2.8l0.9,1.7l-0.7,0.7l-1.7-1.3l-4.9-1.1l-2.3-4.3v-1.7l-2.3-2.5l-0.3-1.1l-7.8-9.5l-0.9-2.8
	l-1.7-1.5L397.9,298.7z"/>
<path id="departement74" inkscape:label="Haute-Savoie" inkscape:connector-curvature="0" d="M446.1,266.2l-4.5,0.8l-4.3,3.5
	l-1.2-1.8l-2.2,0.2l-2,4.3l0.2,1.8l2.1,1.8l-3.9,2.6l-2.5,2.3h-4.3l-2,1.6l-1.9,0.6l-1.1,1.9l-1.9-1.1l-0.4,5.5l1.1,1.9l0.1,2.1
	l1.6,1.3v5.5l3.8,0.6l1.5,2.8l3.4,0.4l0.6-1.3h1.7l3,3.2l1.1,1.1l3.4-0.7l0.8-1.7l0.8-3.4l1.9-1.5l1.5-4.4l1.9-1.3l1.5,0.4l0.4,1.3
	l-1.1,1.3l1.9,2.3h3.2l1.9,3.2l-0.4,1.1l1.9-1.3l1.5-1.7l1.3,0.2l0.1-3.4l6.7-2.8l0.8-1.9l-0.4-4.3l-4.3-4.5l-1.4,0.8v-1.8v-2.9
	l-3.7-1.8l-0.2-1.6l2.2-2.3v-2.7l-3.5-3.7l-0.2-2.5H446.1L446.1,266.2z"/>
<path id="departement42" inkscape:label="Loire" inkscape:connector-curvature="0" d="M339.5,278l-3.5,0.6l-0.6,2.2l1.4,2.7
	l0.4,11.1l-4.7,0.2l-0.2,1.8l3.1,2.5l-1.8,1.8l-0.6,4.3l2.3,3.1l2.1,5.1l5.1,3.3l1.8,6.4l-3.7,3.5l0.6,2.3l5.5,1.8l4.3-3.5l2.1-0.2
	l6.3,2.7l-0.4,3.7l3.1-0.2l2.5,2.8l1.8-0.5l3.4-0.6l0.9-3.8l4.7-2.8l0.4-6.2l0.2-0.1l-2.3-0.3l-2.1,0.8l-1.7-1.1l2.1-2.5l-0.6-1.9
	l-6.6-1.1l-5.5-5.1v-1.7l1.3-1.1v-1.5l-1.5-0.9l1.3-1.9v-2.8l-2.5-2.3v-2.3l-1.7-1.7V293l-0.8-3.2l1.3-1.3l0.2-3.8h4l1.1-1.3
	l-1.3-2.1v-1.9l-1.1-0.8l-0.8,4h-2.2l-1.6,1.6l-1.2-1.2l-6.3-1l-2.3,1.4h-1.6l-0.4-1.4l-2.9-0.6l-0.2-3.1L339.5,278L339.5,278z"/>
<path id="departement69" inkscape:label="Rhône" inkscape:connector-curvature="0" d="M371.8,275.3l-2.1,0.2l-1.8,1.8l-1.2-1.6
	l-1.8,1.6l-2.4-1.6h-1.9l-0.8,0.6l-0.4,2.3l1.1,0.8v1.9l1.3,2.1l-1.1,1.3h-4l-0.2,3.8l-1.3,1.3l0.8,3.2v1.9l1.7,1.7v2.3l2.5,2.3v2.8
	l-1.3,1.9l1.5,0.9v1.5l-1.3,1.1v1.7l5.5,5.1l6.6,1.1l0.6,1.9l-2.1,2.5l1.7,1.1l2.1-0.8l2.3,0.3l4.1-2l-0.7-1.3l-2.8-2.8l4.3-1.5
	l5.5-1.3l4.3-5.5l-2.8-2.3l0.2-2l-4-1.2l-2.6,0.8l-0.4-3.4l-2.3-2.1l-1.5-0.2l-3.8-2.3l0.6-1.5V287l1.1-1.5l0.4-4.6l-0.7,1.6
	l-1.4-0.2l-0.8-3.9L371.8,275.3z"/>
<path id="departement73" inkscape:label="Savoie" inkscape:connector-curvature="0" d="M417,293.8l-0.4,5.7l-1.3,1.1v6.4l-2.6,0.4
	l-0.4,3.6l-2.3,1.7l0,0l0.3,1.1l2.3,2.5v1.7l2.3,4.3l4.9,1.1l1.7,1.3l0.7-0.7l-0.9-1.7l1.3-2.8l1.5-0.2l2.5,3.4l1.1-1.5h1.5l4,4
	l0.2,2.8l-1.9,1.1l-0.9,4l1.7,1.7v1.7l-0.4,1.7l1.3-1.3l2.1,1.3l1.1,1.5l3.5-0.4l1.2,1.2l0.6,2.8l3.5-0.4l0.4-2.9l1.8-0.8l3.8,0.2
	l-0.1-0.1l5.8-2.3l2.2,1.4h2.2l0.2-2.3l2.5-1.4l1-1.2l5.1-2l0.6-3.3l-1-1.6l2.8-4.7l-2.5-1l-0.8-2.8l-5.3-3.1c0,0,0.3-6-0.2-7.1
	c0,0,0-0.1-0.1-0.1c0,0,0,0,0,0c0,0,0,0,0,0c0,0,0,0,0,0c0,0,0,0,0,0c0,0,0,0,0,0c0,0,0,0,0,0c-0.8,0.2-3.7,0.4-3.7,0.4l-2.9-3.3
	l0.1-3.2l-1.3-0.2l-1.5,1.7l-1.9,1.3l0.4-1.1l-1.9-3.2h-3.2l-1.9-2.3l1.1-1.3l-0.4-1.3l-1.5-0.4l-1.9,1.3l-1.5,4.4l-1.9,1.5
	l-0.8,3.4l-0.8,1.7l-3.4,0.7l-1.1-1.1l-3-3.2h-1.7l-0.6,1.3l-3.4-0.4l-1.5-2.8l-3.8-0.6v-5.5L417,293.8L417,293.8z"/>
<path id="departement07" inkscape:label="Ardèche" inkscape:connector-curvature="0" d="M375.3,328.5l-4.5,2.7l-0.9,3.8l-3.4,0.6
	l-1.8,0.5l0.1,0.1l-1.2,4.7l-2.8,1.2l-1.2,2l0.8,2.5l0.6,1.4h-2.9l-0.2,3.7l-3.1,0.2l-1.6,4.9h-4.7l-5.1,3.7l-2.8,4.5l0.5,0.6
	l1.4,7.2l3.3,3.6l-0.6,4.1l4.2,2.5v5.5l2.2-1.1l4.7,3.1l2.2,0.8l0.5-3.9l2.8-0.5l0.8,3l2.8-0.3l0.5-3l6.3,3.6l1-2.1l2.7-0.4l0.2-4.1
	l-0.6-0.9l-0.8-0.2v-1.5l0.6-1.5l-1.1-1.7l0.6-3.8l2.6-3v-4.2l-1.1-4.9l1.9-0.4l0.4-2.1l1.9-3.6l1.1-2.8l-1.7-4.3l-1.1-3.4l-1.5-5.9
	v-8l-1.1-0.3L375.3,328.5z"/>
<path id="departement26" inkscape:label="Drôme" inkscape:connector-curvature="0" d="M384.9,329.3l-2.8,1.9l-2.3,0.8l-2.3-0.7v8
	l1.5,5.9l1.1,3.4l1.7,4.3l-1.1,2.8l-1.9,3.6l-0.4,2.1l-1.9,0.4l1.1,4.9v4.2l-2.6,3l-0.6,3.8l1.1,1.7l-0.6,1.5v1.5l0.8,0.2l0.6,0.9
	l-0.2,4.1l2.6-0.4l1.2,1.4l-0.6,3.9l0.8,1l2.9-2.9l2.6-0.2l0.6-1.6l-3.3-0.4l-0.6-3.5l2.1-3.3l2.8-0.2l2.7,2.6l-2.7,3.7l0.8,1.4
	l3.9,0.4l2.5-2.2l-1.4,2.9l0.4,2.3l4.1,0.4l5.5,0.4l0.8,2.5l2.9,2.2l2.5,0.2l1.8-1.6l1-2.9l1.6,1.4l1.2,1.4l0.8-7.3l-1.9-0.4
	l-1.2-2.5l-6.6-1.8l-0.8-3.3l2.4-1.6l-2-1.4l0.4-1.8l3.1,0.2l2.7,1.4l2.2-2.5l-2.2-1.8l0.2-2.3l1.2-3.7l4.1-0.4l3.3-1.3l0.3-0.8
	l-3.5-0.4l-1.3-1.1l-1.9-0.2l-1.9-1.5l-2.5-1.5h-2.8l-1.1-1.1l-0.2-15.9h-0.7l-0.8,1.5l-1.9,1.3l-4.5-1.3l-3.4-1.1l-1.5,0.4
	l-0.4-1.1l1.1-3l-0.4-3l0.9-2.1l-2.1-3h-3L384.9,329.3z"/>
<path id="departement17" inkscape:label="Charente-Maritime" inkscape:connector-curvature="0" d="M149.3,270.6l-2.8,0.2l-6,3.6
	l1.4,1.3l-3.1,2.5l-0.4,2l-2.9,0.4l-1.6-1.8l-3.9-0.4l-0.4-2l-2.3-1.6l-3.3,1.2l2.2,3.1h2.7l2.8,1.8l2.2,1.8l4.1-0.2l0.8,1.8
	l2.7,0.6l1,2.7l1.8,0.8l-0.2,2.2l-2.3-0.4l-0.8,1.2l1.8,2.5l-1,4.3l-2.3-0.2l0.2,2.7l0.6,1h-2.8l-0.4-1.6l1.8-2.3l-0.6-1.3l-1-0.8
	l-0.4-4.7l-3.3-0.4l-2.7-3.3l-0.4,6.8l4.5,3.3l0.4,3.7l0.8,4.3l0.4,4.3l2.3-0.2l4.1,3.3l2.8,1.6l0.2,1.9l2.2,0.4l6.3,6.3l1.5,6.8
	h5.8l1-1l0.2,2.9l5.1,0.6l0.8,6.3l2.8,0.2l4.5,4.5l2.3,0.4l2.8-1.4l1.9,1.4l1.6-3.3l1.6-2.7l-4.2-2.8l-1.3-1.7l-1.7-1.9l-4,0.7
	l-1.3-0.7l-0.2-1.1l2.1-0.8v-0.4l-1.5-0.4l-1.1-0.8l2.6-2.1V324l-1.3-1.3l0.8-0.8l0.4-2.1l-1.5-1.5l-1.3-2.1l-2.3-2.1l-1.7-1.1
	l1.5-1.7l-0.8-0.2l-0.2-4.5l-1.7-0.7l2.3-1.3h2.8l1.3-1.1h2.3l0.4,1.1l2.1,0.2l1.5-0.6l0.4-4l1.7-6.2l0.1,0l-1.5-1.5l-0.4-2.1
	l-2.8-1.3l-3.6-2.5l-4.5,0.4l-2.8-3.6l-4-0.2l-3.2-2.3v-1.3l-2.1-2.3l-0.1-2.9l-2.9-2.2l-3.7,1.6L149.3,270.6L149.3,270.6z"/>
<path id="departement19" inkscape:label="Corrèze" inkscape:connector-curvature="0" d="M265.8,307.6l-0.8,2.1l-3.2,0.6l-1.3,2.1
	H259l-2.1-0.6l-1.5,2.5l-2.3,0.2l-1.5,2.8h-1.9l-1.5,1.5l-3.8-0.4l-1.3,2.1l-1.5-0.2l-2.6,3.2l-2.3-0.9l-1.1,2.2l0.8,2.2l2.2,1.8
	l-3.9,3.5v2.7l1.6,0.8l-1.6,2l2.2,1.8l-1.6,1.9l1.8,1.2l4.3-0.2l-0.2,4.3l1.6,2.6l0.6-0.1l4.2-1.9l5,2.2l3.8,5.5l2.2-0.3l3.3-3.3
	l1.1,1.9l2.2-2.2l3,0.8l0.1,0.7l2.5-1.8l-0.8-1.9l-1.2-1.2l1.6-1.9h1.6l1-3.1l0.8-1.6l-0.6-3.5l2.5-3.5l3.5-2.2l0.2-5.5l1.8,1l2,2.2
	h1.9l1.2-1.4l-1-2.3l1-3.5l-0.6-3.3l-1.2-1.4v-2.8l1.8-2.9l-0.4-2.8l-0.4-0.4l-2,1.5h-3.8l-1.3,1.9H276l-1.9-1.9l-0.9-1.3h-4.9
	l-1.1-1.5L265.8,307.6L265.8,307.6z"/>
<path id="departement23" inkscape:label="Creuse" inkscape:connector-curvature="0" d="M256.1,267.9L255,271l-3.5-0.2l-0.8-0.4
	l-2.3,0.2l-1.8-1.2l-3.4,3.9l0.1,2.9l-2.3,4.7l0.4,2.3l2.5,0.6l1.7,4.3l1.7,1.7l-0.6,8.1l3.6-1.1l1.5,1.9l-2.3,1.9v1.9l1.9,0.2
	l3.4-0.2l1.1-1.5h0.8l-0.4,2.6l2.8,1.3l2.6,1.7v1.1H260l0.4,2.5l1,0.6l0.3-0.4l3.2-0.6l0.8-2.1h1.5l1.1,1.5h4.9l0.9,1.3l1.9,1.9h2.3
	l1.3-1.9h3.8l2-1.5l-4.1-4.1l-0.4-1.8l3.7-2.2l2.2-1.2l0.6-2.8l2.3-1.8l-0.8-3.7l-1.6-1.9l-0.4-6.1l-2.2-5.1l-2.2-0.8l-1.6-2.8
	l-1.4,1.8l-1.3-1.8v-2.3l-2.3-3.3l-6.4,0.8l-3.7-1L256.1,267.9z"/>
<path id="departement87" inkscape:label="Haute-Vienne" inkscape:connector-curvature="0" d="M239.5,270.8l-1.8,1.8l-4.9-0.4
	l-0.6-0.1l-3.7,0.7l-2.2,1.8v2.3l-4.3,0.2l-2.5,2.9l-1.6,1.2l1.3,1.6l-0.2,5.3l-1,1.8l1.6,1.8l2.7,0.2l0.6,2.7l0.2,1.8l-3.5,0.8
	l-1.8,0.6l0.4,4.9l-2.3,1.6l-2,0.6l-1,2.8l-1.6,0.2l-0.7,3l4.6,0.2l1,1.9l-0.8,2.2l1.8,2.3l1.3-0.4l1.4-2l6.3,0.6l1,3.9l4.3,0.6
	l1,1.3l-2.9,1.4l1.4,1l4.1,0.6l0.3,0.8l1.1-2.2l2.3,0.9l2.6-3.2l1.5,0.2l1.3-2.1l3.8,0.4l1.5-1.5h1.9l1.5-2.8l2.3-0.2l1.5-2.5
	l2.1,0.6h1.5l1-1.7l-1-0.6l-0.4-2.5h1.5v-1.1l-2.6-1.7l-2.8-1.3l0.4-2.6h-0.8l-1.1,1.5l-3.4,0.2l-1.9-0.2v-1.9l2.3-1.9l-1.5-1.9
	l-3.6,1.1l0.6-8.1l-1.7-1.7l-1.7-4.3l-2.5-0.6l-0.4-2.3l2.3-4.7l-0.1-2.9l-0.5,0.6L239.5,270.8z"/>
<path id="departement86" inkscape:label="Vienne" inkscape:connector-curvature="0" d="M188.8,225.7l-3.7,3.9l-0.9,1.6l0.3,4.8
	l1.7-0.2l0.2,2.1l0.7,3.4l1.1,2.3l-1.3,1.5l0.6,1.1l-0.8,1.5v0.6l1.5,1.7v1.1l-0.7,1.7l-2.1,3.2l2.1,0.8l0.7,1.5l-0.9,2.3l-0.2,1.1
	l-1.3,2.1v1.5l0.8,0.2v4.5l1.5,1.1l-0.7,1.5l0.2,1.3l1.7,1.9l0.9-1.3v-1.1l1.7-0.8l1.3,0.8v3.2l-1.3,1.5l-1.1,2.5l1.5,2.3l3,0.8
	l-0.7,1.9l-2.8,0.5l2.6,3.1l3.4-0.2l3-1.1l3,1.7l1.1-0.8l-0.2-2.8l1.7-1.3l1.5,2.6l1.3,1.3l3.6-1.5l1.5-1.7h3.4l1.8,0.9l0.1-3.7
	l-1.3-1.6l1.6-1.2l2.5-2.9l4.3-0.2v-2.3l2.2-1.8l5.3-1l0.4-2.9l-2.1-1.2l-1.2-4.1l-3.1-0.4l-1.9-1.9l-3.7-2.9l0.8-2.3v-3.7l-3.5-3.5
	L219,246l-3.3-3.5l-1.2-4.7l-1.4-0.6l-1.6-2.2l-1.6,1l0.4,2.2l-5.1,1.2h-5.8l0.2-2.3v-3.7l-4.7-1.4v-2.3l-3.7-0.8l-0.8-3.1H188.8z"
	/>
<path id="departement16" inkscape:label="Charente" inkscape:connector-curvature="0" d="M206.3,284.9l-1.7,1.3l0.2,2.8l-1.1,0.8
	l-3-1.7l-3,1.1l-3.4,0.2l-2.6-3.1l-0.8,0.2l-3.4,1.7l-2.6,0.7v1.5l-1.5,1.7l0.4,1.1l-1.9,1.1l-1.7,6.2l-0.4,4l-1.5,0.6l-2.1-0.2
	l-0.4-1.1h-2.3l-1.3,1.1h-2.8l-2.3,1.3l1.7,0.7l0.2,4.5l0.8,0.2l-1.5,1.7l1.7,1.1l2.3,2.1l1.3,2.1l1.5,1.5l-0.4,2.1l-0.8,0.8
	l1.3,1.3v1.5l-2.6,2.1l1.1,0.8l1.5,0.4v0.4l-2.1,0.8l0.2,1.1l1.3,0.7l4-0.7l1.7,1.9l1.3,1.7l4.2,2.8l0.6-1l3.9,0.4l1.9-1.8l3.5-3.5
	l0.2-6.8l9.2-6.3l0.2-4.7l2.8-0.4l1.8-3.1l1.1,0l0.7-3l1.6-0.2l1-2.8l2-0.6l2.3-1.6l-0.4-4.9l1.8-0.6l3.5-0.8l-0.2-1.8l-0.6-2.7
	l-2.7-0.2l-1.6-1.8l1-1.8l0.1-1.6l-1.8-0.9h-3.4l-1.5,1.7l-3.6,1.5l-1.3-1.3L206.3,284.9L206.3,284.9z"/>
<path id="departement79" inkscape:label="Deux-Sèvres" inkscape:connector-curvature="0" d="M181.7,229.4l-5.3,0.2l-4.9,1
	l-5.3,0.4v2.7l-2.7,1.8l-6.1-1.4l-4.1,1.8l1.9,2.8v2.3l4.7,3.9l-1.2,2.5l3.1,3.5l-1.4,1.8l1.9,2.9l0.6,5.5l-1.2,1.6l1.4,2.3
	l-1.4,2.6l0.2,1.6l1.6-1.2l1.9,2l-2.7,1.8l-1,1.2l-2.2,0.6l-2.5,1.2l-0.2-0.2l0.1,2.9l2.1,2.3v1.3l3.2,2.3l4,0.2l2.8,3.6l4.5-0.4
	l3.6,2.5l2.8,1.3l0.4,2.1l1.5,1.5l1.8-1l-0.4-1.1l1.5-1.7v-1.5l2.6-0.7l3.4-1.7l3.6-0.6l0.7-1.9l-3-0.8l-1.5-2.3l1.1-2.5l1.3-1.5
	v-3.2l-1.3-0.8l-1.7,0.8v1.1l-0.9,1.3l-1.7-1.9l-0.2-1.3l0.7-1.5l-1.5-1.1v-4.5l-0.8-0.2v-1.5l1.3-2.1l0.2-1.1l0.9-2.3l-0.7-1.5
	l-2.1-0.8l2.1-3.2l0.7-1.7v-1.1l-1.5-1.7v-0.6l0.8-1.5l-0.6-1.1l1.3-1.5l-1.1-2.3l-0.7-3.4l-0.2-2.1l-1.7,0.2l-0.3-4.8l-0.4,0.7
	l-1.4-1.2L181.7,229.4z"/>
<path id="departement22" inkscape:label="Côtes-d&apos;Armor" inkscape:connector-curvature="0" d="M69.8,123.2l-1.8,1.4
	l-4.5,0.6l-1,1.4l-3.1-2.3l-4.1,2.8l1.6,2.1l-2.7,3.7l-0.1-0.1l-1.1,5.3l2.4,0.2l-0.2,2.1l1.8,1.1l-1.6,1.6l-1.1,0.8l0.2,1.9
	l2.4,0.8l-2.3,0.7v2.4l1.5,1.9l0.3,5.7l-1,1l0.8,2.9l3.1,0.8l0.3,1.6l1.9,0.2l1.6-1.1l1,1l3.7,1.6l3.1-1.6l0.8-1.6l2.6-0.2l2.9,2.6
	l2.8-0.7l2.4,2.4h1.1l1.1,1.4h2.3l0.8-1.1l1,2.1l2.4,1l3.1-1.9v-2.1l2.3-0.8h1.4l1.8,3.3l3.9,0.3l1.9-2.4l2.1-4.5l2.8-1l1.4-2.1
	l1.5,1.4l3.1-0.6l1-8.9l1-3.6l-1-1.9l-1.6-0.6l-1.1-5.9l-1.3,1.4l-3.7-0.4l-0.4,2.2l-2.3,0.2l-0.2-2.7l-2-0.6l-1.4,1.6v-3.9
	l-2.3,1.8l-3.5-0.6l-1.2,2.3l-7.2,3.9v2h-1.6v-3.5l-4.1-1.9l0.4-3.5l-3.7-2.7v-3.3l-2.8-0.6l0.2-3.1l-2.1-0.2l0.2-2.2h-3.9l-0.6,1.9
	L69.8,123.2z"/>
<path id="departement85" inkscape:label="Vendée" inkscape:connector-curvature="0" d="M138.5,229.6l-1.1,2.1h-3.2l1.3,1.3
	l-1,3.2l-2.9,1l-1.1-0.8l0.5-3.2l-0.8-1.8h-1.8l-1.3,1.4l0.6,4.5l1.5,2.1l-1.5,1.6l-2.7-0.5l-4-1l-1.1-3.1l-2.6-0.3l-3.4-1.5
	l-0.8-1.9l-3.7-2.4l-5.8,7.5l-0.2,4.7l6,5.8l-0.2,1.8h1.8l3.7,11.2l3.9,1.9l3.9,3.9h4.5l1.8,3.9h4.3l1.9,2.9l4.3,2.2l0.2-2.8l1.1,1
	l6-3.6l2.8-0.2l1.2,3.1l3.7-1.6l3.1,2.3l2.5-1.2l2.2-0.6l1-1.2l2.7-1.8l-1.9-2l-1.6,1.2l-0.2-1.6l1.4-2.6l-1.4-2.3l1.2-1.6l-0.6-5.5
	l-1.9-2.9l1.4-1.8l-3.1-3.5l1.2-2.5l-4.7-3.9v-2.3l-1.9-2.8l0.4-0.2l-2.7-2.3h-5l-1.6-1l-2.3-0.3l-2.6-2.4L138.5,229.6z"/>
<path id="departement50" inkscape:label="Manche" inkscape:connector-curvature="0" d="M119.6,77.5l-0.8,2l4.1,3.3v4.3l-1.6,1.9l1,1
	l0.6,0.4l-0.4,3.7l1.4,3.1l4.5,5.1l1,4.5l1,1.4v7l2.3,4.7v5.5l-2.5,5.1l2.7,7l4.3,1l0.4,2l-2.1,1h-3.7l0.6,2.5l1.2,3.7l3.3,2.9
	l1.6,0.4l1.6-2.1l1.8-0.2l2.1-2.5l2,1.6h2.3l1.6,0.8v0.4l3.3,0.4l2-1.6l2.9,1.2l0.1,0.1l3.3-2.8l1.1-3.7l-0.3-1.6l0.5-1.9l-1.9-1.9
	l-5-3.3l-3.7-0.3l-3.7-4.7l3.1-1.1l1.3-2.4l-1.6-1.5l1.4-1.3l1.4,1.1l2.6-1.6l1.6-2.6l0.6-2.6l-1.1-2.3l0.7-0.8l-1.5-2.4l1.6-2.1
	l-1.3-1.6l-1.6,2.1l-2.3-1.3l-3.7-3.7l-0.2-1.6l1.1-1.1l-0.3-2.2l-1.8,0.5l-0.2-4.7l-5.1-6l1.6-3.9h2.2l-1.9-5.3l-8.4-0.4l-4.5,3.1
	l-5.1-3.3L119.6,77.5z"/>
<path id="departement56" inkscape:label="Morbihan" inkscape:connector-curvature="0" d="M56,160.6l-3.3,1.6h-2.3l-2.4,1.9l0.2,1.4
	l1.4,3.7l0.8,2.9l5,0.8l2.4,1.9l1-1.2l1.6,2.1l-0.8,1l-0.2,2.9h-1.4l-1.1,1.8h-2.3l-0.9,3.8l2.2,3.5l3.1,0.8l1.2-1.8l-0.6,2.1
	l2.7,1.2l3.5,3.5l1.2,2.2l-0.4,2.5l-0.4,2.6l2.3,1.8l1.2-1.4l-1.2-1.6v-3.5l2.3,0.6l0.8-2.3l0.6,1.4l2.5,2.2l1.2-2l-1.2-2.7l2.2,2.9
	l2.7-0.4l-0.6-1.4l2.5,0.6l1.9,2.3l-1,1.6l-2.5-0.8l-2.9-1.4l-1.6,2l2.3,0.8l1.8,2.7l10.6-1l2.7,0.6l-1.3,1.2l0.2,1.8l0.4,0.3
	l0.8-0.2l1.8-1.8l1.2,1.3h3.1l3.7-1.9l5.5-2.2l0.2-5.5l1.2-0.6l-2.1-3.9l1.8-1.4l-0.3-1l-1.1-0.7l1.8-0.8l1.6-1.9l-0.2-1.9H109
	l-0.5-1.9l1.5-1.9l-1.6-2.9l-2.4-1.5h-2.8l-1-0.3v-1.3l1.4-1.3l0.8-3.2l-0.5-2.1l-0.7,0.8l-3.9-0.3l-1.8-3.3h-1.4l-2.3,0.8v2.1
	l-3.1,1.9l-2.4-1l-1-2.1l-0.8,1.1h-2.3l-1.1-1.4h-1.1l-2.4-2.4l-2.8,0.7l-2.9-2.6l-2.6,0.2l-0.8,1.6l-3.1,1.6l-3.7-1.6l-1-1
	l-1.6,1.1l-1.9-0.2l-0.3-1.6l-3.1-0.8L56,160.6z"/>
<path id="departement29" inkscape:label="Finistère" inkscape:connector-curvature="0" d="M40.7,129.1l-2.1,2.3l-2.3-1l-4.3,0.4
	l-0.8,1.9l-2.5,0.6l-0.4-2.2l-4.5,0.6v1.4l-3.1,0.2l-1.4-1l-1.6,0.8l-0.4,2.3l-5.3,0.2L9.2,139l2.3,1.8l-3.1,2.6l1,1.8l-0.8,4.3
	l3.1,0.4l1.2-1.2l0.6,0.8l7.4-1l4.9-3.5l-4.3,4.1l0.4,1.9l3.9-1.8l-0.8,2.8l4.3,0.2l-0.2,1.2l-4.7-0.2l-3.7-1l-4.5-2.2l-2.7,3.1
	l3.5,1.2l-0.2,5.3l1-0.8l2.2-3.3l4.1,2.3l2,0.4l0.8,3.1l-1.2,2.1l-2.5-0.2h-2.3l-3.9,0.6l-6.7,0.4L8.8,166l1.9,1.2l2.2-0.2l1.8,1.6
	l2.5-0.2l4.1,4.7l1,5.1l-1.4,2.8l4.1,0.8l4.5-0.2l1-1.8l-1.8-2.3l1.8,0.8l1.8-0.2l3.1,1.8l1.9-0.4v-3.3l0.8,3.3l2.5,4.1l5.5,0.4
	l0.2-1.2l1.3,1.9l3.3,0.6h2.5l0.2,0.2l0.9-3.8h2.3l1.1-1.8h1.4l0.2-2.9l0.8-1l-1.6-2.1l-1,1.2l-2.4-1.9l-5-0.8l-0.8-2.9l-1.4-3.7
	l-0.2-1.4l2.4-1.9h2.3l3.3-1.6l-0.7-2.5l1-1l-0.3-5.7l-1.5-1.9v-2.4l2.3-0.7l-2.4-0.8l-0.2-1.9l1.1-0.8l1.6-1.6l-1.8-1.1l0.2-2.1
	l-2.4-0.2l1.1-5.3l-3.2-1.9l-5.5,0.2v3.9h-1.6l-0.4-1.8l-2.3,0.4L40.7,129.1z"/>
<path id="departement35" inkscape:label="Ille-et-Vilaine" inkscape:connector-curvature="0" d="M116.3,135.9l-1.9,2.1l1.1,5.9
	l1.6,0.6l1,1.9l-1,3.6l-1,8.9l-3.1,0.6l-1.5-1.4l-1.4,2.1l-2.8,1l-2.1,4.5l-1.3,1.6l0.5,2.1l-0.8,3.2l-1.4,1.3v1.3l1,0.3h2.8
	l2.4,1.5l1.6,2.9l-1.5,1.9l0.5,1.9h2.1l0.2,1.9l-1.6,1.9l-1.8,0.8l1.1,0.7l0.3,1l-1.8,1.4l2.1,3.9l3.9-2.1l12.1-0.6l0.8-2.2l2-1.9
	l4.3-0.6l0.2-2.2l2.9,0.4l1.8,2.3l3.9,1l0.8-1.6l1-3.5l2.5-6.3l1.4-0.8l3.3,0.4v-5.3l-1.4-1.4v-5.7l-0.6-1.9v-3.1l2-2v-3.9l-1-0.8
	l0.2-5.5l-1.6-0.8h-2.3l-2-1.6l-2.1,2.5l-1.8,0.2l-1.6,2.1l-1.6-0.4l-3.3-2.9l-1.2-3.7l-0.6-2.5h-9.6l-3.5-2.2l2.3-3.1L116.3,135.9z
	"/>
<path id="departement44" inkscape:label="Loire-Atlantique" inkscape:connector-curvature="0" d="M132.9,185.8l-0.2,2.2l-4.3,0.6
	l-2,1.9l-0.8,2.2l-12.1,0.6l-5.1,2.7l-0.2,5.5l-5.5,2.2l-3.7,1.9H96l-1.2-1.3l-1.8,1.8l-0.8,0.2l1,0.7l-3.7,3.3l0.8,0.8l0.8,1.6
	l-2,2.8l2.2,1.2l3.7,0.8l0.4-1.6l2.2,2.8h3.5l2.5-2.8h3.3l-3.5,1.8l0.2,2l0.8,1.8l-2.2,2.2h-2.3l0.4,2.9l4.3-0.8l5.1,4.7l-0.3,0.3
	l3.7,2.4l0.8,1.9l3.4,1.5l2.6,0.3l1.1,3.1l4,1l2.7,0.5l1.5-1.6l-1.5-2.1l-0.6-4.5l1.3-1.4h1.8l0.8,1.8l-0.5,3.2l1.1,0.8l2.9-1l1-3.2
	l-1.3-1.3h3.2l1.1-2.1l1.1,0.2l2.6,2.4l1.9,0.3l0.1-2l-1.6-2.1h-1.4l-0.5,0.2l-1-0.5l0.8-0.8v-1.5l1.6-0.5l1-2.3l-0.8-0.8l-0.2-2.8
	H140l-2.1-2.6v-1.9l2.3-1.2l4-0.8l6.3,0.2l1.9-1.3l-0.7-4l-2.9-2.7l-3.5,0.5l-1-0.8l-0.2-2.9l2.6-2.3l-1.9-2.4l-1.3-3.4l-2.1-1.3
	v-2.3l-0.2-0.7l-3.7-0.9l-1.8-2.3L132.9,185.8z"/>
<path id="departement49" inkscape:label="Maine-et-Loire" inkscape:connector-curvature="0" d="M141.9,188.7l-0.4,0.9l-0.3-0.1
	l0.2,0.7v2.3l2.1,1.3l1.3,3.4l1.9,2.4l-2.6,2.3l0.2,2.9l1,0.8l3.5-0.5l2.9,2.7l0.7,4l-1.9,1.3l-6.3-0.2l-4,0.8l-2.3,1.2v1.9l2.1,2.6
	h2.1l0.2,2.8l0.8,0.8l-1,2.3l-1.6,0.5v1.5l-0.8,0.8l1,0.5l0.5-0.2h1.4l1.6,2.1l-0.1,2l0.4,0.1l1.6,1h5l2.7,2.3l3.7-1.6l6.1,1.4
	l2.7-1.8V231l5.3-0.4l4.9-1l5.3-0.2l0.6,1.4l1.4,1.2l1.3-2.3l3.7-3.9h1.5l2.2-8l3.1-3.7l-0.2-4.3l2-2.6V206l-1-1.2l0.6-1.3l-2.7-1
	l-8.2-5l-7.6-2.3l-2.9-0.2v-1.9l-1.8-1.5h-1.9l-3.6-1.1l-2.3,2.3L161,193l-2.3-1.3l-5.8-1.8l-1.3,1.6l-3.2-2.1h-2.9L141.9,188.7z"/>
<path id="departement72" inkscape:label="Sarthe" inkscape:connector-curvature="0" d="M202.4,151.9l-5.3,0.2l-5.3,4.9l-2.8-0.2
	l-3.7,1.2l-1.1,1.9l-0.5,4.2l0.3,2.6l-2.9,2.4l-0.8,1.6l0.7,1.5l-0.8,1.9l0.3,0.8l-3.2,0.3l-0.5,1.4l1.4,3.6l-0.2,1l-1.3,1.1
	l-2.8,0.2l-0.3,1l0.7,1v5.8l-0.6,1.5l1.8,1.4v1.9l2.9,0.2l7.6,2.3l8.2,5l2.7,1l1.3-2.6l3.9,2.8h2.2l-1.2-3.9l2.4,1.6l1.3-2l5.7-1.6
	l-1-2.3l1.4-1.8l2.9-1.2l2.7-3.5v-3.7h2l0.8-2.7l0.2-4.1l-1.9-1.8l1.6-2.7l2.3-2.9l-2.7-1.9l-2.5-0.4l-2.8-4.1h-0.8l-0.2,1.9
	l-0.2-1.3h-4.1l-2-2.9L205,161l-1-7L202.4,151.9z"/>
<path id="departement53" inkscape:label="Mayenne" inkscape:connector-curvature="0" d="M182.5,146.4l-1.9,0.2l-0.8,1.9l-2.9,1.2
	l-5.3-0.8l-5.3,3.1l-1.9-1.4l-2.9,2l-2.2-1.6l-1.4-2.3l-2.9-1.2l-2,1.6l-3.3-0.4l-0.2,5.1l1,0.8v3.9l-2,2v3.1l0.6,1.9v5.7l1.4,1.4
	v5.3l-3.3-0.4l-1.4,0.8l-2.5,6.3l-1,3.5l-0.3,0.7l3.5,0.7h2.9l3.2,2.1l1.3-1.6l5.8,1.8l2.3,1.3l5.2-0.2l2.3-2.3l3.6,1.1h1.9l0,0
	l0.6-1.5v-5.8l-0.7-1l0.3-1l2.8-0.2l1.3-1.1l0.2-1l-1.4-3.6l0.5-1.4l3.2-0.3l-0.3-0.8l0.8-1.9l-0.7-1.5l0.8-1.6l2.9-2.4l-0.3-2.6
	l0.5-4.2l1.1-1.9l3.7-1.2l-0.6,0l-1-3.5l-2.5-1l-0.8-4.3L182.5,146.4L182.5,146.4z"/>
<path id="departement14" inkscape:label="Calvados" inkscape:connector-curvature="0" d="M202.7,97.8l-4.6,0.8l-7.4,4.3l-8.4,3.3
	l-6.7-3.7l-16-2.3l-3.7-1.9l-5.8,1.5l0.3,2.2l-1.1,1.1l0.2,1.6l3.7,3.7l2.3,1.3l1.6-2.1l1.3,1.6l-1.6,2.1l1.5,2.4l-0.7,0.8l1.1,2.3
	l-0.6,2.6l-1.6,2.6l-2.6,1.6l-1.4-1.1l-1.4,1.3l1.6,1.5l-1.3,2.4l-3.1,1.1l3.7,4.7l3.7,0.3l2.8,1.8l3.9-1.2l2.9-3.4l4,1.1l3.5-2.4
	l2.1-0.8l2.3,2.3l3.7-0.7l3.2,1.8l4-1.3l3.7-2.8l2.4-2.8l1.6-0.3l0.5,2.1l1.3-0.3l0.2-1.5l3.7-0.6l1.3,0.8l4-0.9l0.7-1.9l-0.2-1.8
	l-2-0.8l-0.2-1.4l1.8-1.2l0.2-2l-1.2-4.7l-2.3-3.3l2-1.2v-0.8l-2-0.6L202.7,97.8z"/>
<path id="departement61" inkscape:label="Orne" inkscape:connector-curvature="0" d="M206.8,124.7l-4,0.9l-1.3-0.8l-3.7,0.6
	l-0.2,1.5l-1.3,0.3l-0.5-2.1l-1.6,0.3l-2.4,2.8l-3.7,2.8l-4,1.3l-3.2-1.8l-3.7,0.7l-2.3-2.3l-2.1,0.8l-3.5,2.4l-4-1.1l-2.9,3.4
	l-3.9,1.2l2.2,1.4l1.9,1.9l-0.5,1.9l0.3,1.6l-1.1,3.7l-3.3,2.8l1.3,2.2l2.2,1.6l2.9-2l1.9,1.4l5.3-3.1l5.3,0.8l2.9-1.2l0.8-1.9
	l1.9-0.2l1.8,1.6l0.8,4.3l2.5,1l1,3.5l3.3,0.2l5.3-4.9l5.3-0.2l1.6,2.1l1,7l3.3,1.2l2,2.9h4.1l0.2,1.3l0.2-1.9h0.8l2.8,4.1l2.1,0.3
	v-4.6l-1.3-1.8l-0.4-1.6l2.9-1.8l2.9-0.6l1.9-2.3l-0.4-7.2l-4.1-3.5l-0.2-3.3l-3.5-2.3l1.4-1.9l-0.8-2.9l-2.7-1l-2-2l-1.2-2.7
	l-5.5-0.2l-1.6-2L206.8,124.7z"/>
<path id="departement28" inkscape:label="Eure-et-Loir" inkscape:connector-curvature="0" d="M247.2,126.1l-1.2,1v3.1l-3.9,1.9v2.9
	l-1.2,1.4H236l-2.3-1l-7.1,3.7h-2.7l-2.8,2.7l0.7,0.4l0.2,3.3l4.1,3.5l0.4,7.2l-1.9,2.3l-2.9,0.6l-2.9,1.8l0.4,1.6l1.3,1.8v4.6
	l0.4,0.1l2.7,1.9l-1,1.3l1.9,1l3.1-0.6h1.8l-0.1,0.8l-1.7,1l1.1,0.8h2.8l1,2.3l1.7,1l1.3,2.8l4.3,1.1l2.7-0.3l2.4-2.3l2.1,0.6
	l0.5-1.2l-0.1-1.3l1.1-0.8l1.8,1.1l1.1-0.8V176l1.5-1l1.4,0.6l1.3,1.4l2.3-1.3h2.4l1.7-1.8l1-3.6l1.5-0.3l-0.4-3.7l1.8-1.5l-0.6-1.1
	l0.2-0.4l-0.5,0.1l-0.4-5.3l-0.4-0.6l-0.4-2.5l-4.1-0.8l-1.8-2.2l-0.6-4.3l-2.3-0.4l-0.4-2.2l-2.7-1.9l-1.4-3.3l1.4-2.3l-1.4-1.6
	v-1.9l0.8-2.2l-1.6-1.6l-0.6-2.3L247.2,126.1z"/>
<path id="departement89" inkscape:label="Yonne" inkscape:connector-curvature="0" d="M318.4,157.3l-1.8,1.3l-7.6-0.4l-3.5,1.8
	l-1.4,2.9l1.6,1.8l-2.3,2.8l-1.8,2.1l3.5,3.3l1,3.1l2.6,2.7v3.5l-5.1,4.3l1.8,2l-0.4,2.9l-2.8,2h-3.9l0.6,2.2l2.5,3.5l0.6,3.1
	l0.6,2.2l-1.2,0.3l2.5,0.6h1.8l1-1.5h1.3l1.4,1.3l-0.3,1.6l1.3,0.8h1.8l2.5,1.7l1.1-0.6l1.1,1l1.1-0.3l1.9-1.3l1.8,0.6l1.3-0.3v-3.5
	l0.7,0.1l0.4,1.8l2.3,1.4v2.1l3.2,0.1l4.2,3.9l2.7,0.1l-0.2-1.3l1.1-1.7l1,1.3l-0.8,1.4l0.4,1.3l1.5-1h1.8l-0.2,2.8l1.7,1.1l1.3-0.6
	l3.1-2.1l-0.2-0.4l-1.8-1.1l-0.1-2l2-1l0.8-1.1l-0.6-1v-2.3l1.5-2.3l2.3-4.8l0.4-2.1l1.4-0.6l0.2-0.4l-0.7-0.6v-1.7l2.3-1.7l0.6-2.8
	l-1-1.7h-1.6l-0.4-0.4v-2.4l2-1.4l-0.2-1.4l-0.3-1.4l-1,2.2l-1.4-0.2l-1.2-2.2l-3.9,2l-7.8-0.4l-1-2.2l-2.2-2.9l-0.4-3.5l-3.1-3.7
	l-2,1.4l-3.5-2.7l0.6-5.3l-5.1-5.3h-2.3L318.4,157.3z"/>
<path id="departement70" inkscape:label="Haute-Saône" inkscape:connector-curvature="0" d="M423.5,175.5l-3.7,0.6l-0.6,1.9
	l-2,1.4l-1.3-1.6l-1,0.6l0.8,1.2l-1.9,1.2l0.6,1.6l-2.2,0.8v2.5h-2.8l-0.2,1.6l-2.7,0.6l0.2,2.3l1.8,0.2l-1,1.2l-0.6,3.9h-1.8
	l-2.9,1.2l-3.1-1.2l-2.7,1.2v2l2.1,0.4l1.6,3.1l0.2,1.6l-2.5,2.9l-1.2,0.4l-0.8,1l2.2,1l0.4,3.1l1.8,0.2l0.2,3.9l0.8,0.8l0.1,0.6
	l1.5,0.4l1.7,1.4h2.5l1-1l1.7,0.1l1.8,0.1l3.9-3.2h1.1l1.3-1l4.1,0.1l3.1-2.5l2.3-0.4l0.8-2.1l1.8-0.6l1.8-3.1l2.5-2l2.7-0.4l2,1.4
	l3.7-0.4v-2l1.5-0.8l1.2-1.6h2.3l1.3-1.3l0.5-3.1v-1.9l-0.8-3v-2.5l1.5-1.1l1.8-0.9l-0.2-0.4l-6.3-3.3l-1.8-2l-1.8-1.2l-1.6,0.8
	l-0.2,1.2l-1.6,1h-1l-2.9-3.3h-4.1l-1.8,1.4l-1.6,0.2l-2.5-1.9l0.2-2.2L423.5,175.5L423.5,175.5z"/>
<path id="departement76" inkscape:label="Seine-Maritime" inkscape:connector-curvature="0" d="M241.9,61.5l-1.3,1.6l-8.4,6.4
	l-14.8,3.7l-9.8,3.5l-8,4.3l-4.7,7l-1,5.5l3.9,2.9l5.7,1.2l-0.9,0.2l0,0.2l4.4-0.6l2.3-2.4l1.7-0.4l1.9,3.4l2.7-0.3l1.1,1.9l4.8-0.3
	l4.8,3.4l-3.1,1l2.3,1.7h1.4l1.3,2.7h2.3l0.7-1.7l-1.7-1.1l4.8-1.4l5-0.6l1.3-3.7l2.4-2.1l4.5-0.1l5.2,2.7l3.1,0.3l0.5-1.6l1.4-2.6
	l0.8-1.3h-2v-3.3l-1.2-1.9l0.8-3.9l0.8-2h-1.6l0.8-1.9l1.9-2.3l-1.9-3.5l-0.6-3.5l-8.6-8.4l-1-1.9l-2.2,0.2L241.9,61.5z"/>
<path id="departement27" inkscape:label="Eure" inkscape:connector-curvature="0" d="M211,94.6l-1.7,0.4l-2.3,2.4l-4.4,0.6l0.9,7.3
	l2,0.6v0.8l-2,1.2l2.3,3.3l1.2,4.7l-0.2,2l-1.8,1.2l0.2,1.4l2,0.8l0.2,1.8l-1.6,4.5l1.6,2l5.5,0.2l1.2,2.7l2,2l2.7,1l0.8,2.9
	l-1.4,1.9l2.8,1.9l2.8-2.7h2.7l7.1-3.7l2.3,1h4.9l1.2-1.4v-2.9l3.9-1.9v-3.1l1.1-0.9l-0.1-0.9l1-1l-1.8-0.4v-1.6l-1-1.6l0.8-1
	l5.5-1.6l1.4-2.3l1.2-4.3l1.4-1.8l0.3-2.3l1.8,1l1.4-0.4l-1-1.6l-0.6-4.5l-1.8-1.6l0-0.1l-3.1-0.3l-5.2-2.7l-4.5,0.1l-2.4,2.1
	l-1.3,3.7l-5,0.6l-4.8,1.4l1.7,1.1l-0.7,1.7h-2.3l-1.3-2.7h-1.4l-2.3-1.7l3.1-1l-4.8-3.4l-4.8,0.3l-1.1-1.9l-2.7,0.3L211,94.6z"/>
<path id="departement37" inkscape:label="Indre-et-Loire" inkscape:connector-curvature="0" d="M212.2,196.9l0.4,0.9l-5.7,1.6
	l-1.3,2l-2.4-1.6l1.2,3.9h-2.2l-3.9-2.8l-1.9,3.9l1,1.2v1.2l-2,2.6l0.2,4.3l-3.1,3.7l-2.2,8h0.3l0.8,3.1l3.7,0.8v2.3l4.7,1.4v3.7
	l-0.2,2.3h5.8l5.1-1.2L210,236l1.6-1l1.6,2.2l1.4,0.6l1.2,4.7l3.3,3.5l0.4,2.8l3,3l1.7-0.2l2.1-2l1.5-8l1-2.8l0.7-3.5l3.1-1.1
	l2.1,0.4l1.4,1.3l1.5-2.5l1.4-1.3v-1.5l1.8-0.1l0.4-1.8l-1.6-2.1l0.3-0.9l-1.1-0.9l-2.9-4.3h-3.8l-1.1-1.7v-7l-1.5-4.1l-0.3-5
	l-2-0.2l-2.3-1.7h-0.6l-2,1.4l-1.3-0.8l-0.3-1.9l1.4-0.7l0.1-0.7l-0.8-0.7L212.2,196.9z"/>
<path id="departement45" inkscape:label="Loiret" inkscape:connector-curvature="0" d="M273.7,160.5l-2.5,2.3l-5.7,0.5l-0.2,0.4
	l0.6,1.1l-1.8,1.5l0.4,3.7l-1.5,0.3l-1,3.6l-1.7,1.8h-2.4l-2.3,1.3l-1.3-1.4l-1.4-0.6l-1.5,1v1.5l-1.1,0.8l-1.8-1.1l-1.1,0.8
	l0.1,1.3l-0.5,1.2l0.4,0.1h1.7l-0.1,1.1l-1.1,1.9v1h1.1l1,1.1l0.3,1.1l-2.2,2.2l1.1,2.7v1.3l1.8,1.3l2.5,0.3l1.7,1.4l0.4,2.4
	l1.8,2.1l2-0.6l0.8-1.8l3.1,0.4l0.7,0.7h2l1-1.1l7.2,0.3l1.7,2.5l2,0.8l1.7,1.6l2.1-0.3l0.6-0.7h1.3l1.6,2l3.2,0.2l0.8,1.1l2.3,3.1
	l1,0.8l1.3-0.1l0.2-2.8l0.6-0.3l0.8,0.1l1.4,1.8l1,0.4l2-0.8l-0.3-0.3l-0.2-2l3.9-1.2l-0.6-2.2l-0.6-3.1l-2.5-3.5l-0.6-2.2h3.9
	l2.8-2l0.4-2.9l-1.8-2l5.1-4.3v-3.5l-2.6-2.7l-1-3.1l-3.5-3.3l-4.9,2.8l-0.4-1.6l-2.2-0.2l-0.6,1.6l-1.9,0.4l-5.3-0.2l-2.2,1.4
	l-1.8-1.6l3.1-2.2l-0.2-3.3l-2.3-1.2l-2-2.9l-5.3-0.4L273.7,160.5z"/>
<path id="departement36" inkscape:label="Indre" inkscape:connector-curvature="0" d="M254.7,221.4l-1.3,0.4l-2.5-0.2l-2.9,1
	l-0.7,1.5l-0.3-0.6l-3.4,0.2l-1.7,1.4l-2,0.3l-0.3,1l1.6,2.1l-0.4,1.8l-1.8,0.1v1.5l-1.4,1.3l-1.5,2.5l-1.4-1.3l-2.1-0.4l-3.1,1.1
	l-0.7,3.5l-1,2.8l-1.5,8l-2.1,2l-1.7,0.2l0.5,0.5v3.7l-0.8,2.3l3.7,2.9l1.9,1.9l3.1,0.4l1.2,4.1l2.1,1.2l-0.4,2.9l-1.6,0.3l0.6,0.1
	l4.9,0.4l1.8-1.8l3.1,3.1l3.9-4.5l1.8,1.2l2.3-0.2l0.8,0.4l3.5,0.2l1.2-3.1l9.8,1.2l3.7,1l1.7-0.2l0.1-1.6l2-2l-0.4-1.7l-1.1-2.2
	l0.4-0.8l0.2-2.5l0.7-0.8l0.2-0.6l-1.7-1.5l-0.6-2l-2.7-1.4V251l1.9-1.1v-1.1l-1.8-1.5l-0.6-1l1.4-0.7l-0.1-1.3l2.2-1.8l-0.1-0.8
	h-1.8l-1.1-1.3v-0.7l1-1.7v-1.3l-2.3-3l0.4-2.7l-1.3-1l-2.7,0.1l-2.1,0.8l-2.8-0.4l-1.4-1.1l-0.3-0.8l2.3-1.8l0.2-2.2l-3-1.7
	L254.7,221.4z"/>
<path id="departement41" inkscape:label="Loir-et-Cher" inkscape:connector-curvature="0" d="M222.5,172.3l-1.3,1.7l-1.6,2.7
	l1.9,1.8l-0.2,4.1l-0.8,2.7h-2v3.7l-2.7,3.5l-2.9,1.2l-1.4,1.8l0.6,1.5l9.5,0.3l0.8,0.7l-0.1,0.7l-1.4,0.7l0.3,1.9l1.3,0.8l2-1.4
	h0.6l2.3,1.7l2,0.2l0.3,5l1.5,4.1v7l1.1,1.7h3.8l2.9,4.3l1.1,0.9l0-0.1l2-0.3l1.7-1.4l3.4-0.2l0.3,0.6l0.7-1.5l2.9-1l2.5,0.2
	l1.3-0.4l1.7,1.6l3,1.7l2.5-0.2l-0.1-2.5l1.1-1.3l1.1-0.1l1,1.1l3.9-0.4l2.5-1.4l-0.3-1l-0.7-0.8l0.1-1.8l1.8-3.3l2.4-1v-2.1
	l0.6-1.3l-1.5-0.6l-1-2.1l-2.5-0.7l-0.1-0.8l2.5-2.1l2.8-1.4l-1.6-2.4l-7.2-0.3l-1,1.1h-2l-0.7-0.7l-3.1-0.4l-0.8,1.8l-2,0.6
	l-1.8-2.1l-0.4-2.4l-1.7-1.4l-2.5-0.3l-1.8-1.3v-1.3l-1.1-2.7l2.2-2.2l-0.3-1.1l-1-1.1h-1.1v-1l1.1-1.9l0.1-1.1h-1.7l-2.5-0.7
	l-2.4,2.3l-2.7,0.3l-4.3-1.1l-1.3-2.8l-1.7-1l-1-2.3h-2.8l-1.1-0.8l1.7-1l0.1-0.8h-1.8l-3.1,0.6L222.5,172.3z"/>
<path id="departement18" inkscape:label="Cher" inkscape:connector-curvature="0" d="M275.5,200.8l-2.8,1.4l-2.5,2.1l0.1,0.8
	l2.5,0.7l1,2.1l1.5,0.6l-0.6,1.3v2.1l-2.4,1l-1.8,3.3l-0.1,1.8l0.7,0.8l0.3,1l-2.5,1.4l-3.9,0.4l-1-1.1l-1.1,0.1l-1.1,1.3l0.1,2.5
	l-2.5,0.2l-0.2,2.2l-2.3,1.8l0.3,0.8l1.4,1.1l2.8,0.4l2.1-0.8l2.7-0.1l1.3,1l-0.4,2.7l2.3,3v1.3l-1,1.7v0.7l1.1,1.3h1.8l0.1,0.8
	l-2.2,1.8l0.1,1.3l-1.4,0.7l0.6,1l1.8,1.5v1.1l-1.9,1.1v1.7l2.7,1.4l0.6,2l1.7,1.5l-0.2,0.6l-0.7,0.8l-0.2,2.5l-0.4,0.8l1.1,2.2
	l0.4,1.7l-2,2l-0.1,1.6l4.6-0.6l0.9-2l2.5-2.9l4.9-1l2.6,0.8l2.7-2.1l-0.2-1.6l-1-0.8v-3.1l5.3-5.3l2,2.2l1.8-1.8l1.6-0.2l2.7-3.5
	l4.5,0.4l0.1,1.1l1.5-4.8l-1-1.8l0.2-2.5l0.6-5.1l-2.2-2.1l0.4-4.7l-2-4.1l-0.2-2.7l-3.5-2.8l-0.6-2.3l1.8-2.5v-3.7l-2-2.4l-2,0.8
	l-1-0.4l-1.4-1.8l-0.8-0.1l-0.6,0.3l-0.2,2.8l-1.3,0.1l-1-0.8l-2.3-3.1l-0.8-1.1l-3.2-0.2l-1.6-2h-1.3l-0.6,0.7l-2.1,0.3l-1.7-1.6
	l-2-0.8L275.5,200.8L275.5,200.8z"/>
<path id="departement21" inkscape:label="Côte-d&apos;Or" inkscape:connector-curvature="0" d="M363.4,177.3l-0.4,2.5l-2.5,1.4
	l-6.4,0.2l0.3,1.4l0.2,1.4l-2,1.4v2.4l0.4,0.4h1.6l1,1.7l-0.6,2.8l-2.3,1.7v1.7l0.7,0.6l-0.2,0.4l-1.4,0.6l-0.4,2.1l-2.3,4.8
	l-1.5,2.3v2.3l0.6,1l-0.8,1.1l-2,1l0.1,2l1.8,1.1l0.7,1.5l-0.3,2.1l-0.4,1.5l1,1.7l2.8,0.6l1.3,2v0.8l-0.8,0.3v2l0.2,0.1l3.8,3.9
	l3.9-0.1l3.5,2.7l2.5,1.8l0.1,2.4l2.7,0.6l2.3,1.8l5.9-2.1l4.1-1.3l1.8-0.3l0.6-0.8l2,0.1l1.5,1l2.3-0.6l2.3-1.5l1.7,0.2l0-0.2
	l1.3-0.8l-0.2-1l-0.4-1.2l1-1.6l3.3-1.6v-1.6l1.2-1.6l1.2-1.6l-0.4-1.4l0.6-2.2l0.4-3.1h0.8l-0.2-1.2l-0.8-0.8l-0.2-3.9l-1.8-0.2
	l-0.4-3.1l-2.2-1l0.8-1l1.2-0.4l2.5-2.9l-0.2-1.6l-1.6-3.1l-2.3-0.4l-0.8,2l-4.3,1l-0.4-1l-3.1-3.9l-1.8,1l-2.3-0.2l-0.8-1.6
	l-3.1,0.2l-0.2-3.3l-1.8-1.2l2.5-2.7l-4.5-6.1l-3.5-3.7l-3.1-1.8H363.4L363.4,177.3z"/>
<path id="departement58" inkscape:label="Nièvre" inkscape:connector-curvature="0" d="M306.8,203.8l-1,1.5h-1.8l-2.5-0.6
	l-2.8,0.8l0.2,2l2.3,2.7v3.7l-1.8,2.5l0.6,2.3l3.5,2.8l0.2,2.7l2,4.1l-0.4,4.7l2.2,2.1l-0.6,5.1l-0.2,2.5l1,1.8l-1.5,4.8l0.1,1.5
	l3.3,1.6l2.3,2.6l2.1-1.2l2-1.2l0.4,1.8h2.9l0.8-1.6l1.8,0.8l0.6,2.5l1.6-0.4l3.7-5.1l1.9,1.4l0.3,0.6l3.1-1.9l1.3,0.2l1,2.4
	l1.8-0.3l1.4-1.4h1.8l1.4-1.8l1.4-0.3l0.3-1l3.1,0.2l0.2-0.7l-1.4-1.3v-1.3l2-1.1v-0.8l-1.8-1.1l-0.3-2.1l0.2-2l-1.3-0.8l1.1-1.5
	l1-0.6l0.7-1.7l-1-0.6l-1.1-1.7l1.4-2l2.4-1.4h2.9v-2.2l0.8-0.3v-0.8l-1.3-2l-2.8-0.6l-1-1.7l0.4-1.5l0.3-2.1l-0.5-1.1l-3.1,2.1
	l-1.3,0.6l-1.7-1.1l0.2-2.8h-1.8l-1.5,1l-0.4-1.3l0.8-1.4l-1-1.3l-1.1,1.7l0.2,1.3l-2.7-0.1l-4.2-3.9l-3.2-0.1v-2.1l-2.3-1.4
	l-0.4-1.8l-0.7-0.1v3.5l-1.3,0.3l-1.8-0.6l-1.9,1.3l-1.1,0.3l-1.1-1l-1.1,0.6l-2.5-1.7h-1.8l-1.3-0.8l0.3-1.6l-1.4-1.3H306.8z"/>
<path id="departement71" inkscape:label="Saône-et-Loire" inkscape:connector-curvature="0" d="M351.5,227.8v0.2h-2.9l-2.4,1.4
	l-1.4,2l1.1,1.7l1,0.6l-0.7,1.7l-1,0.6l-1.1,1.5l1.3,0.8l-0.2,2l0.3,2.1l1.8,1.1v0.8l-2,1.1v1.3l1.4,1.3l-0.2,0.7l-3.1-0.2l-0.3,1
	l-1.4,0.3l-1.4,1.8h-1.8l-1.4,1.4l-1.8,0.3l-1-2.4l-1.3-0.2l-3.1,1.9l3.6,6.8v2.9l1,1.2h3.3l1.2,1.6h3.1l1.4,1.9l-0.2,7.6l-4.1,3.1
	l-0.1,0.2l0.3,0l0.6,0.2l0.2,3.1l2.9,0.6l0.4,1.4h1.6l2.3-1.4l6.3,1l1.2,1.2l1.6-1.6h2.2l1.2-6.3l0.8-0.6h1.9l2.4,1.6l1.8-1.6
	l1.2,1.6l1.8-1.8l2.1-0.2l1,3.1l0.8,3.9l1.4,0.2l1.2-2.8l3.7-14.4l1.4-2.5l2.2-0.2l2.2,1.8l1.6-0.4l1.9-1.4l2,0.4l1.2,2.5l1.1,0.4
	l5.1-0.6l2-1.6l-0.8-1.2l-2.3-0.8l-0.2-2.7l2-1.4l0.8-3.3l-1.8-3.1l-1.2-1.6l0.6-0.6v-1.9l-1.6-1l-0.4-1.6l4.5-0.6l0.4-1.6h-1.4
	l-1.2-1.4h-2.2l-1.8-2.9l-1.6-0.2l0.2-2.3l-1.7-0.2l-2.3,1.5l-2.3,0.6l-1.5-1l-2-0.1l-0.6,0.8l-1.8,0.3l-4.1,1.3l-5.9,2.1l-2.3-1.8
	l-2.7-0.6l-0.1-2.4l-2.5-1.8l-3.5-2.7l-3.9,0.1l-3.8-3.9L351.5,227.8z"/>
<path id="departement39" inkscape:label="Jura" inkscape:connector-curvature="0" d="M401.2,217.5l0.1,0.5h-0.8l-0.4,3.1l-0.6,2.2
	l0.4,1.4l-1.2,1.6l-1.2,1.6v1.6l-3.3,1.6l-1,1.6l0.4,1.2l0.2,1l-1.3,0.8l-0.2,2.5l1.6,0.2l1.8,2.9h2.2l1.2,1.4h1.4l-0.4,1.6
	l-4.5,0.6l0.4,1.6l1.6,1v1.9l-0.6,0.6l1.2,1.6l1.8,3.1l-0.8,3.3l-2,1.4l0.2,2.7l2.3,0.8l0.8,1.2l-2,1.6l-5.1,0.6l2.4,0.9l3.9,5.5
	l2.5,1.2v2.8l2.9-0.4l3.7-4.1l3.1,1.6v2.3h5.7l8.1-8.9l-0.3-0.2l0.4-4.1l2.9-3.5l-2-0.8l0.2-1.2l-2.4-0.2l-0.2-1.4l1.5-1.5l-0.4-1.5
	l-0.8-2l3.5-1.1l1.3-1.8l0.3-2.3l-2.8-2.7l-2-0.5l-4.3-1.4v-3.9l-0.3-2.9l-3.5,0.3l-5.5-1.8l0.8-1.9l1.3-3l0.4-1.9l-1.4-1.8
	l-2.5-1.7l-0.3-2.1l0-1.2l-1.7-0.1l-1,1h-2.5l-1.7-1.4L401.2,217.5L401.2,217.5z"/>
<path id="departement51" inkscape:label="Marne" inkscape:connector-curvature="0" d="M337.4,99.3l-2.3,1l0.4,1.9h-4.1l-3.7,2.8v5.3
	l2.7,1.8l0.8,1.8l-4.5,0.4l-0.6,1.8l1.8,1.2l-0.8,1.2l-1.8,0.8l0.4,1.3h2.5l1,1.4l-1.8,1.2l-1.6,4.1l-2.9,1.4l-1,2.1l-1,1.2l0.2,1.2
	l-1.6,1l-0.4,2.7l1.6,1l0.8,2.9l-1,1.8l0.6,1.4l2.9-0.2v1l0.8-0.2l3.4,3.6l4.8-0.8l5.6-3.8h3.3l3.4-2.4l4-2.2l3,0.2l0.4,4l3.6,5.3h4
	l5.6-1.2l4,1.4l4.2-3l0.6-4.9l4.6-0.8l-0.1-3.1l-3.7-2.9l-0.4-1.6l1.4-2.3l-1.2-1l1.2-2.9l2.2-1l1.6-4.9l-3.1,0.2l1.8-1.9l-1.4-4.3
	l-1.3-2.9l1.8-1.6l-1-0.2l-0.3-1.3c0,0-0.3,0-0.3,0l-1.8-1.6l-2,2h-0.6l-0.8-1l-4.8-0.2l-0.8,1.2H364l-1.2-2.6h-2.6l-0.6,0.6
	l-2.6-0.2l-3.2-2.4l-2.2-0.6l-0.8-1.2l-4.2-2.6l-4.8-0.1l0.1,1.8l-1.4,0.4L337.4,99.3L337.4,99.3z"/>
<path id="departement60" inkscape:label="Oise" inkscape:connector-curvature="0" d="M257.2,80.2l-1.3,1.5l-0.8,1.9h1.6l-0.8,2
	l-0.8,3.9l1.2,1.9v3.3h2l-0.8,1.3l-1.4,2.6l-0.6,1.8l1.8,1.6l0.6,4.5l1,1.6l-1.4,0.4l-1.8-1l-0.3,2.3l0.1-0.2l0.8,1.8l1.2,1.9
	l5.3,0.4l3.7-0.4l2.5-1.9l3.1,1.9l1.6,1.2l2.3-0.6l2.1-1l4.1,2.2l4.3,2.5l1.4,1.4l2.3-1.6l1.9,1.2l1.2,1l1.8-0.2l1.2-1.6l2.7,1.6
	l3.3-1.4l1.9,0.6l1.9-1.6l1.2-0.6l0.4,0.3l0.4-2.7l-1.4-1.6l-2.4-1.6l-1,1.6l-0.6,0.2l-0.2-3l1.8-0.4l-0.4-2.8l-2.4-0.4l1.2-2
	l3.4-0.8l1.2-4.8l1.8-0.8l-2.4-1.8l0.8-1.8l0.4-5.9l-0.8-4.6l-4.1,0.4l-2.8-0.4l-5.2,1.4l-4.4,4.2l-3.6-1.2l-3.6-0.4l-2.8-2.8
	l-5-1.4l-6.7,0.6l-1.8-1.4h-3.6l-2.6,1l-1.2-0.8v-2.2l-0.4-0.6H257.2z"/>
<path id="departement62" inkscape:label="Pas-de-Calais" inkscape:connector-curvature="0" d="M269.3,8.7l-10.8,2.1l-8.6,6.6v26.4
	l-0.1,0.8l3,0.7l1,2.2l2.3-0.6l1.4-1.8l1.8,0.6l3.7,2.9l1.4-0.6l1,2.3l3.5,1.6v1.9l2.6,1l2.5-1l4.9-0.6l1.2,1l2.3-1l1.2,2l-2.9,1.9
	v2.8l1,1l0.8-0.2l0.6-1.6l1.8-1.2l1.8,1.4l4.1,1.4h1.8v-2l2.6,1.8L295,62l-1.2,1.8l2.2-1.2l1.8-0.8l0.8,1.4v1.4l2.9-1.6h4.7l0.2,0.2
	l1.2-2.2l-0.6-1l-1.8-0.4h-2l-1.2-0.4l2-1.2l1.8,0.2l1.8-0.2l0.2-3.2l1.2-0.8l0.2-1.8l-2.2-1.4l-2.6-0.2l-0.6-0.4l1.6-1.2l0.4-1.2
	l-1.4-1l-2-2.4l0.2-1.2l2.6-1.2l0.4-1.4l-1.8-0.8l-1-2.6l-3.6-0.4l-3.6-1l-0.4-4l2.6-1.6l-1-2h-2l-1.4,2.2l-6.2-0.4l-5-1.2l-2.8-3
	v-2.4l2.2-1l-1.8-1.4l-4.3-0.2l-2.6-6.6L269.3,8.7z"/>
<path id="departement59" inkscape:label="Nord" inkscape:connector-curvature="0" d="M285.8,4.1L279.5,7l-9.8,1.6l-0.5,0.1l3.7,5.9
	l2.6,6.6l4.3,0.2l1.8,1.4l-2.2,1v2.4l2.8,3l5,1.2l6.2,0.4l1.4-2.2h2l1,2l-2.6,1.6l0.4,4l3.6,1l3.6,0.4l1,2.6l1.8,0.8l-0.4,1.4
	l-2.6,1.2l-0.2,1.2l2,2.4l1.4,1l-0.4,1.2l-1.6,1.2l0.6,0.4l2.6,0.2l2.2,1.4l-0.2,1.8l-1.2,0.8l-0.2,3.2l-1.8,0.2l-1.8-0.2l-2,1.2
	l1.2,0.4h2l1.8,0.4l0.6,1l-1.2,2.2l1.6,1.6l1.6,0.4l1.6-1h2.2l0.6,1.2l0.8-0.2l2.3-1.4l2.3,1.4l3.1-2.2h1.4l1.6,1.4l3.1-2.2l1.3,0.2
	l1.2,1l4.3,0.4l0.4,1.8l2.2-1.9h1.2l0.8,2.5l3.7,1l1.1-0.7h-0.3l-0.2-1.9l3.9-2.3l-0.6-3.7l-3.7-1l1-1v-2.7l2.9-2.2l-0.8-1.6
	l-6.3-4.9l-10.9,0.6l-1.2,1.9H327l0.2-6.8l-3.1-3.7l-2.3,0.4l-1.4-1.6l-3.9,1.8l-1.3-1.3l-2.8-0.4l-0.8-2.5l-0.2-7.8l-1.8-0.8
	l-0.2-1.2h-1.2l-0.4-2.3l-2.5,0.2l-4.9,1.6l-2.3,2.9h-2.3l-1.6-1.9l-0.6-2.2l-1.9-2.2h-2.8l-1.2-2.1v-3.3l1.3-2.1l-0.8-2.9
	L285.8,4.1z"/>
<path id="departement02" inkscape:label="Aisne" inkscape:connector-curvature="0" d="M328.4,62.2l-3.1,2.2l-1.6-1.4h-1.4l-3.1,2.2
	l-2.3-1.4l-2.3,1.4l-0.8,0.2l-0.6-1.2H311l-1.6,1h-0.1l0.5,2.8l-2.6,2.8v2.6l-1.8,2l0.4,2.4l1,4l1.2,6.8l-0.4,5.9l-0.8,1.8l2.4,1.8
	l-1.8,0.8l-1.2,4.8l-3.4,0.8l-1.2,2l2.4,0.4l0.4,2.8l-1.8,0.4l0.2,3l0.6-0.2l1-1.6l2.4,1.6l1.4,1.6l-0.4,2.7l1.8,1.3l0.6,4.3
	l5.3,5.1l1.8,0.6l1,2.3l3.3,0.7l0.4-0.5l1-2.1l2.9-1.4l1.6-4.1l1.8-1.2l-1-1.4h-2.5l-0.4-1.3l1.8-0.8l0.8-1.2l-1.8-1.2l0.6-1.8
	l4.5-0.4l-0.8-1.8l-2.7-1.8V105l3.7-2.8h4.1l-0.4-1.9l2.3-1l3.3,2.2l1.4-0.4l-0.2-6.7l0.6-2.3l0.8-2.7l-2.6-1.4l0.6-1.6l3.7-0.8
	v-2.5l2.9-1.6l0.8-2.3l-1-1.6l0.2-2.9l1.8-1.6l-1.8-3.3l0.5-3.5h-4l-1.1,0.7l-3.7-1l-0.8-2.5h-1.2l-2.2,1.9l-0.4-1.8l-4.3-0.4
	l-1.2-1L328.4,62.2z"/>
<path id="departement80" inkscape:label="Somme" inkscape:connector-curvature="0" d="M249.8,44.5l-0.5,6.4l4.3,3.9v2l-5.3-3.1
	l-6.3,7.8l1.7,0.7l2.2-0.2l1,1.9l8.6,8.4l0.6,3.5l1.9,3.5l-0.7,0.8h2.5l0.4,0.6V83l1.2,0.8l2.6-1h3.6l1.8,1.4l6.7-0.6l5,1.4l2.8,2.8
	l3.6,0.4l3.6,1.2l4.4-4.2l5.2-1.4l2.8,0.4l4.1-0.4l-0.4-2.2l-1-4l-0.4-2.4l1.8-2v-2.6l2.6-2.8l-0.5-2.8l-1.5-0.4l-1.8-1.8h-4.7
	l-2.9,1.6v-1.4l-0.8-1.4l-1.8,0.8l-2.2,1.2L295,62l-0.2-1.6l-2.6-1.8v2h-1.8l-4.1-1.4l-1.8-1.4l-1.8,1.2l-0.6,1.6l-0.8,0.2l-1-1
	v-2.8l2.9-1.9l-1.2-2l-2.3,1l-1.2-1l-4.9,0.6l-2.5,1l-2.6-1v-1.9l-3.5-1.6l-1-2.3l-1.4,0.6l-3.7-2.9l-1.8-0.6l-1.4,1.8l-2.3,0.6
	l-1-2.2L249.8,44.5z"/>
<path id="departement08" inkscape:label="Ardennes" inkscape:connector-curvature="0" d="M367.6,55.8l-2,2.9l-1.8,1.8v1.8v2.3
	l-2.3,1.6l-4.3,1.4l-2.3,1l-2.8-2.2h-3.7l-0.5,3.5l1.8,3.3l-1.8,1.6l-0.2,2.9l1,1.6l-0.8,2.3l-2.9,1.6v2.5l-3.7,0.8l-0.6,1.6
	l2.6,1.4l-0.8,2.7l-0.6,2.3l0.1,4.9l4.8,0.1l4.2,2.6l0.8,1.2l2.2,0.6l3.2,2.4l2.6,0.2l0.6-0.6h2.6l1.2,2.6h1.4l0.8-1.2l4.8,0.2
	l0.8,1h0.6l2-2l1.8,1.6c0,0,0.2,0,0.3,0l-0.1-0.8l2.3-1.2l1.2-1.2l-0.8-1.9l-0.2-1.4l2.2-1.8l0.8-3.9l-2.3-2.9l0.8-1.4l2-3.7
	l0.6,0.8h2.9l1.4,1.3l1.8-1.2l1.4-2.3l-1.4-0.2l-0.8-3.9l-1.6-1.2l-5.5-0.6l-1-2.5l-1.8-1.2l-6.3-0.8l-0.4-4.5l0.8-0.8v-1.8l-3.1-2
	l0.6-2.2l0.8-1.9l-1.4-1.2l2.2-1.9v-3.5l-0.8-0.6L367.6,55.8L367.6,55.8z"/>
<path id="departement10" inkscape:label="Aube" inkscape:connector-curvature="0" d="M349.3,138.7l-4,2.2l-3.4,2.4h-3.3l-5.6,3.8
	l-4.8,0.8l-3.4-3.6l-0.8,0.2v0.6l-2.7,1.2l-0.2,2.3l-1.4,1.8l-0.8,3.9l-0.4,3.3l1.2,1h2.3l5.1,5.3l-0.6,5.3l3.5,2.7l2-1.4l3.1,3.7
	l0.4,3.5l2.2,2.9l1,2.2l7.8,0.4l3.9-2l1.2,2.2l1.4,0.2l1-2.2l6.4-0.2l2.5-1.4l0.4-2.5h5.7l0.8,0.4l-0.7-2.5l-1.6-1l2.2-2l3.4-0.2
	l1.2-1.8l-0.2-7.1l-0.8-4.2l-3.4-1.2l-3.6-5l0.2-3l1-2.2l-1.8-0.6l-5.6,1.2h-4l-3.6-5.3l-0.4-4L349.3,138.7z"/>
<path id="departement52" inkscape:label="Haute-Marne" inkscape:connector-curvature="0" d="M379.1,139.7l-4.6,0.8l-0.6,4.9l-4.2,3
	l-2.2-0.8l-1,2.2l-0.2,3l3.6,5l3.4,1.2l0.8,4.2l0.2,7.1l-1.2,1.8l-3.4,0.2l-2.2,2l1.6,1l0.7,2.5l2.3,1.3l3.5,3.7l4.5,6.1l-2.5,2.7
	l1.8,1.2l0.2,3.3l3.1-0.2l0.8,1.6l2.3,0.2l1.8-1l3.1,3.9l0.4,1l4.3-1l0.8-2l0.2,0v-2l2.7-1.2l3.1,1.2l2.9-1.2h1.8l0.6-3.9l1-1.2
	l-1.8-0.2l-0.2-2.3l2.7-0.6l0.2-1.6h2.8v-2.5l2.2-0.8l-0.6-1.6l0.6-0.4l-1.8-1.4l-2.1,0.8v-4.1L405,173l1.2-5.3l1.8-1.2l-0.6-1.8
	l-2.6-0.4l-0.6-2.6h-2.3l-2.8-3.7l-3.1-0.2l-1.3-1.9l1.8-1.8l-4.1-4.5l-1.8-0.6l-4.7-2.3l-2.5-2.7l-4.1-0.6L379.1,139.7L379.1,139.7
	z"/>
<path id="departement67" inkscape:label="Bas-Rhin" inkscape:connector-curvature="0" d="M480.7,112.3l-3.7,1l-1.7,3v2.9l-1.6,1.4
	h-1.4l-2.5-1.8l-2,1.4h-2.3l-1.9-1.9l-3.7-0.6l-2.2-1l-0.8-2.9l-1.8,1.9l-1,4.5l-2.6,0.8v2.5l2.6,1.2l1.9,1.4l-0.8,1.8l1.8,1.2
	l3.1-2.3l5.4,3.1l-2.3,4.3l0.2,1.4l1.6,1.6l-1.2,4.1L460,145l-2.2-0.2l1.4,1.3l-0.8,3.5l0.8,5.3l3.7,1l-0.3,0.7l2.9-0.2l1.7,2.1
	l1.5,1.9l3.8-0.2l1.7,5l3,1.3l0-0.6l5.1-10l-0.6-5.7l2.3-7.6l0.6-6.7l5.1-3.7v-2.3l2-2.6h1.6l1.8-1.8l-0.4-3.3l1.8-4.7l2.7-0.6
	l-2.7-2.2l-4.9-0.6l-4.3-2.2l-2.9,1.8l-1.6-1.8H480.7L480.7,112.3z"/>
<path id="departement54" inkscape:label="Meurthe-et-Moselle" inkscape:connector-curvature="0" d="M401.6,88.4l-2.3,2.2l-3.3,0.2
	l-1.2,1.2h-0.3l-0.1,2.3l1.2,1.9l-0.4,1.2l-0.4,1.3l0.2,0.8l1-0.8l0.9-1.7l1.9-0.2l3.3-1l1.7,1.3l0.8,1.5l0.6,1.7v1.7l0.9,0.8v1.3
	l-0.9,1.2l-0.2,2.5l0.8,1.2l0.2,1.5l0.2,2.5l1.2,1l1.7,0.8l-0.8,1.5l2.1,1.9l-1.9,2.1l0.4,1.3l1.9,0.9v1h-2.3l-1,1.3l0.2,1l1.5,1.5
	l-1.3,3.6l-1.5,3.4l0.8,2.1v3.4l0.8,1.7h1.1l0.6,1h-1.7l-1.5,0.8v1.2l1.9,1.7v2.7l1.9-0.6l2.9,0.2l0.2,3.1l1.2,0.4l-1.3,0.9l-0.2,1
	l2.1,0.4l1.3,1.7l6.3-0.4l1.3-2.5h2.9l1.2-0.9l1.9,1.2l1.7-0.6l2.5,0.2l2.1-0.8l2.1-1.5l1.2,1.2l0.2-2.7l1.5-0.6l0.8,2.5l2.3,0.2
	l2.3,0.6l0.9,0.2l3.3-1.5l1.7-1.2l1.5-1.9l3.1-1.2l2-0.4l-1.1-1.1l2.2,0.2l0.4-0.4l-2.3-0.8l-3.3-2.3l-2.9-2.1h-3.4l-3.6-2.1
	l-2.9-0.2v-0.8l-4.4-2.7l-5-2.1h-2.5l-0.9-2.7l-3.8-4.8h-3.8l-1.5-2.1H417l0.2-3.1l-4-2.5l0.2-2.5h2.1v-2.1l0.8-1.5l-1.7-1.7
	l1.5-2.7l-1.2-3.1l-0.9-0.8l-2.5-5.3l1-1.5c0,0-0.1-1.3-0.2-2.9h-2.6l-3.5-3.9H401.6z"/>
<path id="departement77" inkscape:label="Seine-et-Marne" inkscape:connector-curvature="0" d="M307.5,116.5l-1.2,0.6l-1.9,1.6
	l-1.9-0.6l-3.3,1.4l-2.7-1.6l-1.2,1.6l-1.8,0.2l-1.2-1l-1.9-1.2l-2.3,1.6l-0.1-0.1l-0.8,5.4l1.2,6.9v4.6l-1.5,3.8l0.4,2.7l-1.7,1.3
	l0.9,5.2l-0.8,1.1l-0.6,5.2l1.3,1.7l-4.4,2.9v3.9l1.2,1.8l2.3,1.2l0.2,3.3l-3.1,2.2l1.8,1.6l2.2-1.4l5.3,0.2l1.9-0.4l0.6-1.6
	l2.2,0.2l0.4,1.6l4.9-2.8l1.8-2.1l2.3-2.8l-1.6-1.8l1.4-2.9l3.5-1.8l7.6,0.4l1.8-1.3l0.2,0.2l0.4-3.3l0.8-3.9l1.4-1.8l0.2-2.3
	l2.7-1.2v-1.6l-2.9,0.2l-0.6-1.4l1-1.8l-0.8-2.9l-1.6-1l0.4-2.7l1.6-1l-0.2-1.2l0.6-0.7l-3.3-0.7l-1-2.3l-1.8-0.6l-5.3-5.1l-0.6-4.3
	L307.5,116.5z"/>
<path id="departement68" inkscape:label="Haut-Rhin" inkscape:connector-curvature="0" d="M465.6,156.5l-2.9,0.2l-1.8,4.2l-2.3,4.7
	l0.6,2.9l-1.9,4.5l-3.3,2.9l-0.2,7.6l-2.4,2.1l0.1,0.1l0.8,1.6l3.1,0.2l3.5,2.8l0.6,1.3l-0.2,2.3l-1,1.8l0.4,2.3l2.8-0.4l0.6,2.2
	l1,4.2l2.3-0.4l-0.4,2.1l1.4,1.2l7.2-0.2l3.7-2.9l0.2-4.3l2-2.5l-2.6-2.9l-1.3-3.1l1.6-2.1v-4.9l1-2.3v-3.9l1.8-2.5l-1.9-2.7
	l-0.2-5.6l-3-1.3l-1.7-5l-3.8,0.2l-1.5-1.9L465.6,156.5L465.6,156.5z"/>
<path id="departement55" inkscape:label="Meuse" inkscape:connector-curvature="0" d="M390.1,86.5l-1.4,2.3l-1.8,1.2l-1.4-1.3h-2.9
	l-0.6-0.8l-2,3.7l-0.8,1.4l2.3,2.9l-0.8,3.9l-2.2,1.8l0.2,1.4l0.8,1.9l-1.2,1.2l-2.3,1.2l0.4,2.2l1,0.2l-1.8,1.6l1.3,2.9l1.4,4.3
	l-1.8,1.9l3.1-0.2l-1.6,4.9l-2.2,1l-1.2,2.9l1.2,1l-1.4,2.3l0.4,1.6l3.7,2.9l0.2,6.8l4.1,0.6l2.5,2.7l4.7,2.3l1.8,0.6l4.1,4.5
	l-0.4,0.4l3.4-0.4v-1.7l3.8-0.8v-1.3h0.9v1.1l3.1-0.9l1.2-1.6l-0.2,0.1v-2.7l-1.9-1.7v-1.2l1.5-0.8h1.7l-0.6-1h-1.1l-0.8-1.7v-3.4
	l-0.8-2.1l1.5-3.4l1.3-3.6l-1.5-1.5l-0.2-1l1-1.3h2.3v-1l-1.9-0.9l-0.4-1.3l1.9-2.1l-2.1-1.9l0.8-1.5l-1.7-0.8l-1.2-1l-0.2-2.5
	l-0.2-1.5l-0.8-1.2l0.2-2.5l0.9-1.2v-1.3l-0.9-0.8v-1.7l-0.6-1.7l-0.8-1.5l-1.7-1.3l-3.3,1l-1.9,0.2l-0.9,1.7l-1,0.8l-0.2-0.8
	l0.4-1.3l0.4-1.2l-1.2-1.9l0.1-2.3h-0.9l-0.8-3.7l-1.6-1.6L390.1,86.5z"/>
<path id="departement57" inkscape:label="Moselle" inkscape:connector-curvature="0" d="M423.1,90.4l-2.9,0.2l-2.3,2l-0.6,1h-3.3
	l-1.2-1.2h-0.5c0.1,1.7,0.2,2.9,0.2,2.9l-1,1.5l2.5,5.3l0.9,0.8l1.2,3.1l-1.5,2.7l1.7,1.7l-0.8,1.5v2.1h-2.1l-0.2,2.5l4,2.5
	l-0.2,3.1h3.1l1.5,2.1h3.8l3.8,4.8l0.9,2.7h2.5l5,2.1l4.4,2.7v0.8l2.9,0.2l3.6,2.1h3.4l2.9,2.1l3.3,2.3l2.3,0.8l3.5-3.5l1.2-4.1
	l-1.6-1.6l-0.2-1.4l2.3-4.3l-5.4-3.1l-3.1,2.3l-1.8-1.2l0.8-1.8l-1.9-1.4l-2.6-1.2V121l2.6-0.8l1-4.5l1.8-1.9l0.8,2.9l2.2,1l3.7,0.6
	l1.9,1.9h2.3l2-1.4l2.5,1.8h1.4l1.6-1.4v-2.9l1.7-3l-0.4,0.1l-1.3-1.9l-3.9-2.3L470,107l-4.7,0.4l-2.8,2.5l-6.6,0.2l-2-1.4
	c-0.1-0.2-1.1-1.9-1.9-2.4c0,0-0.1,0-0.1-0.1c0,0-0.1,0-0.1,0c0,0-0.1,0-0.1,0c0,0,0,0,0,0c0,0-0.1,0-0.1,0c-0.9,0-2.7-1-2.9-1.2
	l-2.8,1.2l-0.2,2.3l-3.3,0.4l-2-3.7l-1.2-0.4v-2.7l-2.8-1.2l-0.2-4.7l-2-1.9l-4.1-2h-1.9l-0.6,0.4h-2L423.1,90.4L423.1,90.4z"/>
<path id="departement88" inkscape:label="Vosges" inkscape:connector-curvature="0" d="M459,145.9l-2,0.4l-3.1,1.2l-1.5,1.9
	l-1.7,1.2l-3.3,1.5l-0.9-0.2l-2.3-0.6l-2.3-0.2l-0.8-2.5l-1.5,0.6l-0.2,2.7l-1.2-1.2l-2.1,1.5l-2.1,0.8l-2.5-0.2l-1.7,0.6l-1.9-1.2
	l-1.2,0.9h-2.9l-1.3,2.5l-6.3,0.4l-1.3-1.7l-2.1-0.4l0.2-1l1.3-0.9l-1.2-0.4l-0.2-3.1l-2.9-0.2l-1.7,0.5l-1.2,1.6l-3.1,0.9v-1.1
	h-0.9v1.3l-3.8,0.8v1.7l-3.4,0.4l-1.3,1.3l1.3,1.9l3.1,0.2l2.8,3.7h2.3l0.6,2.6l2.6,0.4l0.6,1.8l-1.8,1.2L405,173l5.5,2.7v4.1
	l2.1-0.8l1.8,1.4l1.3-0.8l-0.8-1.2l1-0.6l1.3,1.6l2-1.4l0.6-1.9l3.7-0.6l1,0.8l-0.2,2.2l2.5,1.9l1.6-0.2l1.8-1.4h4.1l2.9,3.3h1
	l1.6-1l0.2-1.2l1.6-0.8l1.8,1.2l1.8,2l6.2,3.3l2.4-2.1l0.2-7.6l3.3-2.9l1.9-4.5l-0.6-2.9l2.3-4.7l2.2-4.9l-3.7-1l-0.8-5.3l0.8-3.5
	L459,145.9z"/>
<path id="departement91" inkscape:label="Essonne" inkscape:connector-curvature="0" d="M274.2,136.4l-1.8,0.8l-1.9,0.8l-0.4,2.1
	l-2.9,1.3l-0.4,2.1l1.3,2.3l-1.9,2.7h-2.8l1.1,1.7l-1.3,1.5l-0.5,3.1l0.9,0.2l0.4,2.5l0.4,0.6l0.4,5.3l6.3-0.6l2.5-2.3l2.2,1.8
	l5.3,0.4l0.8,1.1v-3.9l4.4-2.9l-1.3-1.7l0.6-5.2l0.8-1.1l-0.9-5.2l1.7-1.3l-0.3-2.4l-2.2-1h-3.6l-2.1-1.2l-1.5,0.8L274.2,136.4z"/>
<path id="departement78" inkscape:label="Yvelines" inkscape:connector-curvature="0" d="M251.5,118.2l-0.1,0.1l-5.5,1.6l-0.8,1
	l1,1.6v1.6l1.8,0.4l-1,1l0.1,0.9l0.1-0.1l1.9,1.9l0.6,2.3l1.6,1.6l-0.8,2.2v1.9l1.4,1.6l-1.4,2.3l1.4,3.3l2.7,1.9l0.4,2.2l2.3,0.4
	l0.6,4.3l1.8,2.2l3.2,0.6l0.5-3.1l1.3-1.5l-1.1-1.7h2.8l1.9-2.7l-1.3-2.3l0.4-2.1l2.9-1.3l0.4-2.1l1.9-0.8l1.8-0.8l0.3,0.2v-0.2
	l-1.8-2l-1.1-3l1.8-3.8l-0.9-2.9l-3.4-2.1l-4.8-0.2l-4.5-2.9l-3.6,0.7L251.5,118.2L251.5,118.2z"/>
<path id="departement95" inkscape:label="Val-d&apos;Oise" inkscape:connector-curvature="0" d="M255.6,109.7l-1.6,1.9l-1.2,4.3
	l-1.3,2.2l4.8,2.1l3.6-0.7l4.5,2.9l4.8,0.2l3.4,2.1l0.9,2.9l0,0.1l0.4-0.1l3.5-1.9l5.3-0.3l2.9-1.3l1.8-1.3l0.6-3.8l-1.3-1.3
	l-4.3-2.5l-4.1-2.2l-2.1,1l-2.3,0.6l-1.6-1.2l-3.1-1.9l-2.5,1.9l-3.7,0.4l-5.3-0.4l-1.2-1.9L255.6,109.7L255.6,109.7z"/>
<path id="departement93" inkscape:label="Seine-Saint-Denis" inkscape:connector-curvature="0" d="M287.3,122.8l-1.8,1.3l-2.9,1.3
	l-5.3,0.3l0.2,0.7l0.4,0.1l0.4,0.6l-0.4,0.9l-0.5,0.1l0.4,0.9l2.5,0l0.8,1.3l0.2,1.8l0.9-0.1l0.8-0.7l1.2,0.1l1.5,0.9l0.9,1l0.4,0.2
	l0.3,0.5l1,0.3v-2.8l-1.2-6.9L287.3,122.8L287.3,122.8z"/>
<path id="departement75" inkscape:label="Paris" inkscape:connector-curvature="0" d="M280.3,129.1l-2.5,0l-1.1,0.5l-0.5,0.6l-1,0.1
	l-0.9,1.1l0,0.6l0.2,0.7l1.6,0.4l1.9,1l1.2,0.1l0.8-0.2l0.8-0.6l0.3,0.3l1.8,0.3l0.3-0.7v-0.7l-0.3-0.1l-1.3,0.1l0.1,0.3l-0.2,0.2
	h-0.4l0.2-0.4l0.1-0.4h-0.1l-0.2-1.8L280.3,129.1L280.3,129.1z"/>
<path id="departement92" inkscape:label="Hauts-de-Seine" inkscape:connector-curvature="0" d="M277.3,125.8l-3.5,1.9l-0.4,0.1
	l-1.7,3.8l1.1,3l1.8,2v0.2l2.7,1.9l0.7-0.3l-0.5-0.9l0.5-1.5l-0.3-0.5l0.3-1.2h-0.1l-1.9-1l-1.6-0.4l-0.2-0.7l0-0.6l0.9-1.1l1-0.1
	l0.5-0.6l1.1-0.5l-0.4-0.9l0.5-0.1l0.4-0.9l-0.4-0.6l-0.4-0.1L277.3,125.8L277.3,125.8z"/>
<path id="departement94" inkscape:label="Val-de-Marne" inkscape:connector-curvature="0" d="M282.9,131.3l-0.8,0.7l-0.8,0.1
	l-0.1,0.4l-0.2,0.4h0.4l0.2-0.2l-0.1-0.3l1.3-0.1l0.3,0.1v0.7l-0.3,0.7l-1.8-0.3l-0.3-0.3l-0.8,0.6l-0.8,0.2L278,134l-0.3,1.2
	l0.3,0.5l-0.5,1.5l0.5,0.9l0.9-0.4l2.1,1.2h3.6l2.2,1l0-0.2l1.5-3.8v-1.8l-1-0.3l-0.3-0.5l-0.4-0.2l-0.9-1l-1.5-0.9L282.9,131.3
	L282.9,131.3z"/>
<path id="departement25" inkscape:label="Doubs" inkscape:connector-curvature="0" d="M447.4,199.7l-0.2,0.2H445l-1.2,1.6l-1.5,0.8
	v2l-3.7,0.4l-2-1.4l-2.7,0.4l-2.5,2l-1.8,3.1l-1.8,0.6l-0.8,2.1l-2.3,0.4l-3.1,2.5l-4.1-0.1l-1.3,1h-1.1l-3.9,3.2l-1.8-0.1l0,1.2
	l0.3,2.1l2.5,1.7l1.4,1.8l-0.4,1.9l-1.3,3l-0.8,1.9l5.5,1.8l3.5-0.3l0.3,2.9v3.9l4.3,1.4l2,0.5l2.8,2.7l-0.3,2.3l-1.3,1.8l-3.5,1.1
	l0.8,2l0.4,1.5l-1.5,1.5l0.2,1.4l2.4,0.2l0-0.2l12.1-11.3l-0.4-9.4l4.3-2.1l2.9-1.4l2.7-2.5l0.2-3.7l2.7-1.4l6.3-7.2l-1-2.3l2.2-1
	l2.5-3.1l-1.4-1.4l-4.7,1l-0.2-0.8l4.3-5L447.4,199.7z"/>
<path id="departement90" inkscape:label="Territoire de Belfort" inkscape:connector-curvature="0" d="M451.4,186l-1.8,0.9l-1.5,1.1
	v2.5l0.8,3v1.9l-0.5,3.1l-1.1,1.1l12,5.4l0.8-0.9l2.6-0.4l-1-4.2l-0.6-2.2l-2.8,0.4l-0.4-2.3l1-1.8l0.2-2.3l-0.6-1.3l-3.5-2.8
	l-3.1-0.2L451.4,186z"/>
<path id="departement20" inkscape:label="Corse-du-Sud" inkscape:connector-curvature="0" d="M536.3,491.8v2.2l2,1.4l3.3,1.9
	l0.2,1.6l-2,0.6l-3.1,0.6v1.3l1.2,1.2l0.2,3.9l4.3,1.4l1.6,0.4l1.4,2.2l-1,1.4l-1.6,0.6l-1.2,2.2l-1.2,1.4l0.6,3.5l2.9-0.2l0.8,0.6
	l2.8-1.4l0.8,0.8l-1.4,2.9l1.4,1.4l-2.3,1.8l-1.6,3.5l4.3,1l6.1,0.6l-2.5,2.9c0,0-1.2-0.5-1.7-0.2c0,0,0,0-0.1,0c0,0,0,0,0,0
	c0,0,0,0,0,0c0,0,0,0,0,0c0,0,0,0,0,0c0,0,0,0,0,0c0,0,0,0.1,0,0.1c0,0,0,0,0,0c0,0,0,0,0,0.1c0,0,0,0,0,0.1c0,1-1.3,3.3-1.3,3.3
	l1.9,2.1l3.5,2.2l6.6,1.8l1.9,0.8l1.8,0.8l-1.2,2.2l3.1-0.2l0.6,1.4h3.1l0.8-3.7l-2-0.4l2.8-2.9l-1-1l0.2-1.8l3.5-1.9l0.2-2.2
	l-2.3-0.2l-1.6,1.3V533l3.1-0.2l1-2.3l0.8-6.8l-0.6-2.9l-0.1-2.8l-3.4,2.3l-4.1,0.2l-0.3-2.8l0.5-0.7l-1.3-0.9l-0.3-4.8l-0.5-0.9
	h-2.1l-1.1-0.9V506l-1.4-0.9l-1.1-0.5l-2.1-2.7l0.2-1.6h-2.6l-0.9-2.7h-3.7l-1.9-2.7l0.5-0.9l-1.2-0.7l-2.8,0.5l-1.1-0.7h-3.9
	l-0.4-1.1l-2.2-0.4L536.3,491.8L536.3,491.8z"/>
<path id="departement96" inkscape:label="Haute-Corse" inkscape:connector-curvature="0" d="M568.9,452.7l-2.9,2l0.4,1.9l1.6,2
	l-1.8,1.3l0.8,1.6l-1.2,1.4v1.8l2,1.8v2.7l-1.2,2.5l-1.3,0.6l-1.6-2.2l-2.8,0.2l-0.6-0.4H558l-2.1,2l-0.8,3.3l-5.1,1l-3.9,3.3
	l-0.8,2.2l-1.9-0.2l-1-1.2l-0.6,3.3l-1.4,0.6l-0.4,3.1l0.6,1.4l-2.2,1.6l-0.6,1.6l2.2,0.4l0.4,1.1h3.9l1.1,0.7l2.8-0.5l1.2,0.7
	l-0.5,0.9l1.9,2.7h3.7l0.9,2.7h2.6l-0.2,1.6l2.1,2.7l1.1,0.5l1.4,0.9v3.4l1.1,0.9h2.1l0.5,0.9l0.3,4.8l1.3,0.9l-0.5,0.7l0.3,2.8
	l4.1-0.2l3.4-2.3l-0.1-5.8l4.7-6.6v-10.9l-1.9-3.7l-0.6-11.7l-1.4-2.2l-2.5-1.9l-0.4-7.3l1.2-3.3l-1.6-5.3l-1-4.3l-0.8-1.2
	L568.9,452.7L568.9,452.7z"/>
</svg>
